M48
;DRILL file {Pcbnew (2013-07-07 BZR 4022)-stable} date 17-11-2017 21:30:28
;FORMAT={-:-/ absolute / inch / decimal}
FMAT,2
INCH,TZ
T1C0.025
T2C0.032
T3C0.040
T4C0.047
T5C0.120
%
G90
G05
M72
T1
X5.6756Y-3.3979
T2
X4.7Y-2.3
X4.7Y-2.9
X4.8Y-2.3
X4.8Y-2.9
X4.9Y-2.3
X4.9Y-2.9
X5.Y-2.3
X5.Y-2.9
X5.1Y-2.3
X5.1Y-2.9
X5.25Y-2.3
X5.4Y-2.55
X5.4Y-2.65
X5.4Y-2.75
X5.4Y-2.85
X5.4Y-2.95
X5.4Y-3.05
X5.4Y-3.15
X5.4Y-3.25
X5.4Y-3.55
X5.4Y-3.65
X5.4Y-3.75
X5.4Y-3.85
X5.4Y-3.95
X5.4Y-4.05
X5.4Y-4.15
X5.65Y-2.3
X5.7Y-2.55
X5.7Y-2.65
X5.7Y-2.75
X5.7Y-2.85
X5.7Y-2.95
X5.7Y-3.05
X5.7Y-3.15
X5.7Y-3.25
X5.7Y-3.55
X5.7Y-3.65
X5.7Y-3.75
X5.7Y-3.85
X5.7Y-3.95
X5.7Y-4.05
X5.7Y-4.15
X5.8Y-2.3
X5.9Y-2.6
X5.9Y-2.7
X5.9Y-2.8
X5.9Y-2.9
X5.9Y-3.
X5.9Y-3.1
X5.9Y-3.2
X5.9Y-3.55
X5.9Y-3.65
X5.9Y-3.75
X5.9Y-3.85
X5.9Y-3.95
X5.9Y-4.05
X5.9Y-4.15
X6.2Y-2.3
X6.2Y-2.6
X6.2Y-2.7
X6.2Y-2.8
X6.2Y-2.9
X6.2Y-3.
X6.2Y-3.1
X6.2Y-3.2
X6.2Y-3.55
X6.2Y-3.65
X6.2Y-3.75
X6.2Y-3.85
X6.2Y-3.95
X6.2Y-4.05
X6.2Y-4.15
X6.35Y-2.3
X6.45Y-2.6
X6.45Y-2.7
X6.45Y-2.8
X6.45Y-2.9
X6.45Y-3.
X6.45Y-3.1
X6.45Y-3.2
X6.45Y-3.55
X6.45Y-3.65
X6.45Y-3.75
X6.45Y-3.85
X6.45Y-3.95
X6.45Y-4.05
X6.45Y-4.15
X6.75Y-2.3
X6.75Y-2.6
X6.75Y-2.7
X6.75Y-2.8
X6.75Y-2.9
X6.75Y-3.
X6.75Y-3.1
X6.75Y-3.2
X6.75Y-3.55
X6.75Y-3.65
X6.75Y-3.75
X6.75Y-3.85
X6.75Y-3.95
X6.75Y-4.05
X6.75Y-4.15
X6.9Y-2.3
X7.Y-2.6
X7.Y-2.7
X7.Y-2.8
X7.Y-2.9
X7.Y-3.
X7.Y-3.1
X7.Y-3.2
X7.Y-3.55
X7.Y-3.65
X7.Y-3.75
X7.Y-3.85
X7.Y-3.95
X7.Y-4.05
X7.Y-4.15
X7.3Y-2.3
X7.3Y-2.6
X7.3Y-2.7
X7.3Y-2.8
X7.3Y-2.9
X7.3Y-3.
X7.3Y-3.1
X7.3Y-3.2
X7.3Y-3.55
X7.3Y-3.65
X7.3Y-3.75
X7.3Y-3.85
X7.3Y-3.95
X7.3Y-4.05
X7.3Y-4.15
X7.5Y-2.5
X7.5Y-2.7
X7.5Y-2.85
X7.5Y-3.05
X7.5Y-3.2
X7.5Y-3.4
X7.5Y-3.6
X7.5Y-3.8
T3
X4.4Y-2.55
X4.4Y-2.95
X4.4Y-3.1
X4.4Y-3.5
X4.4Y-3.65
X4.4Y-4.05
T4
X4.55Y-3.1
X4.55Y-3.4
X4.55Y-3.65
X4.55Y-3.95
X4.75Y-3.1
X4.75Y-3.4
X4.75Y-3.65
X4.75Y-3.95
X4.95Y-3.1
X4.95Y-3.4
X4.95Y-3.65
X4.95Y-3.95
X5.15Y-3.1
X5.15Y-3.4
X5.15Y-3.65
X5.15Y-3.95
T5
X4.45Y-2.35
X4.45Y-4.25
X7.5Y-2.35
X7.5Y-4.25
T0
M30
