G04 (created by PCBNEW (2013-07-07 BZR 4022)-stable) date 17-11-2017 21:30:10*
%MOIN*%
G04 Gerber Fmt 3.4, Leading zero omitted, Abs format*
%FSLAX34Y34*%
G01*
G70*
G90*
G04 APERTURE LIST*
%ADD10C,0.00590551*%
%ADD11C,0.06*%
%ADD12R,0.09X0.062*%
%ADD13O,0.09X0.062*%
%ADD14C,0.07*%
%ADD15R,0.07X0.07*%
%ADD16C,0.055*%
%ADD17R,0.0787X0.0787*%
%ADD18C,0.0945*%
%ADD19R,0.062X0.09*%
%ADD20O,0.062X0.09*%
%ADD21C,0.16*%
%ADD22C,0.035*%
%ADD23C,0.01*%
%ADD24C,0.019685*%
G04 APERTURE END LIST*
G54D10*
G54D11*
X52500Y-23000D03*
X56500Y-23000D03*
X73000Y-23000D03*
X69000Y-23000D03*
X67500Y-23000D03*
X63500Y-23000D03*
X62000Y-23000D03*
X58000Y-23000D03*
G54D12*
X57000Y-32500D03*
G54D13*
X57000Y-31500D03*
X57000Y-30500D03*
X57000Y-29500D03*
X57000Y-28500D03*
X57000Y-27500D03*
X57000Y-26500D03*
X57000Y-25500D03*
X54000Y-25500D03*
X54000Y-26500D03*
X54000Y-27500D03*
X54000Y-28500D03*
X54000Y-29500D03*
X54000Y-30500D03*
X54000Y-31500D03*
X54000Y-32500D03*
G54D12*
X62000Y-32000D03*
G54D13*
X62000Y-31000D03*
X62000Y-30000D03*
X62000Y-29000D03*
X62000Y-28000D03*
X62000Y-27000D03*
X62000Y-26000D03*
X59000Y-26000D03*
X59000Y-27000D03*
X59000Y-28000D03*
X59000Y-29000D03*
X59000Y-30000D03*
X59000Y-31000D03*
X59000Y-32000D03*
G54D12*
X57000Y-41500D03*
G54D13*
X57000Y-40500D03*
X57000Y-39500D03*
X57000Y-38500D03*
X57000Y-37500D03*
X57000Y-36500D03*
X57000Y-35500D03*
X54000Y-35500D03*
X54000Y-36500D03*
X54000Y-37500D03*
X54000Y-38500D03*
X54000Y-39500D03*
X54000Y-40500D03*
X54000Y-41500D03*
G54D12*
X67500Y-32000D03*
G54D13*
X67500Y-31000D03*
X67500Y-30000D03*
X67500Y-29000D03*
X67500Y-28000D03*
X67500Y-27000D03*
X67500Y-26000D03*
X64500Y-26000D03*
X64500Y-27000D03*
X64500Y-28000D03*
X64500Y-29000D03*
X64500Y-30000D03*
X64500Y-31000D03*
X64500Y-32000D03*
G54D12*
X73000Y-41500D03*
G54D13*
X73000Y-40500D03*
X73000Y-39500D03*
X73000Y-38500D03*
X73000Y-37500D03*
X73000Y-36500D03*
X73000Y-35500D03*
X70000Y-35500D03*
X70000Y-36500D03*
X70000Y-37500D03*
X70000Y-38500D03*
X70000Y-39500D03*
X70000Y-40500D03*
X70000Y-41500D03*
G54D12*
X67500Y-41500D03*
G54D13*
X67500Y-40500D03*
X67500Y-39500D03*
X67500Y-38500D03*
X67500Y-37500D03*
X67500Y-36500D03*
X67500Y-35500D03*
X64500Y-35500D03*
X64500Y-36500D03*
X64500Y-37500D03*
X64500Y-38500D03*
X64500Y-39500D03*
X64500Y-40500D03*
X64500Y-41500D03*
G54D12*
X62000Y-41500D03*
G54D13*
X62000Y-40500D03*
X62000Y-39500D03*
X62000Y-38500D03*
X62000Y-37500D03*
X62000Y-36500D03*
X62000Y-35500D03*
X59000Y-35500D03*
X59000Y-36500D03*
X59000Y-37500D03*
X59000Y-38500D03*
X59000Y-39500D03*
X59000Y-40500D03*
X59000Y-41500D03*
G54D12*
X73000Y-32000D03*
G54D13*
X73000Y-31000D03*
X73000Y-30000D03*
X73000Y-29000D03*
X73000Y-28000D03*
X73000Y-27000D03*
X73000Y-26000D03*
X70000Y-26000D03*
X70000Y-27000D03*
X70000Y-28000D03*
X70000Y-29000D03*
X70000Y-30000D03*
X70000Y-31000D03*
X70000Y-32000D03*
G54D14*
X44000Y-29500D03*
G54D15*
X44000Y-25500D03*
G54D14*
X44000Y-35000D03*
G54D15*
X44000Y-31000D03*
G54D14*
X44000Y-40500D03*
G54D15*
X44000Y-36500D03*
G54D16*
X75000Y-34000D03*
X75000Y-32000D03*
X75000Y-27000D03*
X75000Y-25000D03*
X75000Y-38000D03*
X75000Y-36000D03*
X75000Y-30500D03*
X75000Y-28500D03*
G54D17*
X45500Y-34000D03*
G54D18*
X47500Y-34000D03*
X47500Y-31000D03*
X45500Y-31000D03*
G54D17*
X49500Y-34000D03*
G54D18*
X51500Y-34000D03*
X51500Y-31000D03*
X49500Y-31000D03*
G54D17*
X45500Y-39500D03*
G54D18*
X47500Y-39500D03*
X47500Y-36500D03*
X45500Y-36500D03*
G54D17*
X49500Y-39500D03*
G54D18*
X51500Y-39500D03*
X51500Y-36500D03*
X49500Y-36500D03*
G54D19*
X47000Y-29000D03*
G54D20*
X48000Y-29000D03*
X49000Y-29000D03*
X50000Y-29000D03*
X51000Y-29000D03*
X51000Y-23000D03*
X50000Y-23000D03*
X49000Y-23000D03*
X48000Y-23000D03*
X47000Y-23000D03*
G54D21*
X69000Y-34000D03*
X49000Y-26000D03*
X75000Y-42500D03*
X44500Y-42500D03*
X75000Y-23500D03*
X51500Y-42000D03*
X44500Y-23500D03*
G54D22*
X56756Y-33978D03*
G54D23*
X62000Y-37500D02*
X62000Y-37089D01*
X61949Y-37039D02*
X57000Y-37039D01*
X62000Y-37089D02*
X61949Y-37039D01*
X57000Y-37500D02*
X57000Y-37039D01*
X67579Y-31460D02*
X67500Y-31539D01*
X73000Y-31460D02*
X67579Y-31460D01*
X73000Y-31000D02*
X73000Y-31460D01*
X67500Y-32000D02*
X67500Y-31539D01*
X62129Y-36960D02*
X62000Y-37089D01*
X64500Y-36960D02*
X62129Y-36960D01*
X64500Y-36500D02*
X64500Y-36960D01*
X61460Y-27539D02*
X62000Y-27000D01*
X58649Y-27539D02*
X61460Y-27539D01*
X58145Y-28044D02*
X58649Y-27539D01*
X58145Y-28170D02*
X58145Y-28044D01*
X57315Y-29000D02*
X58145Y-28170D01*
X56704Y-29000D02*
X57315Y-29000D01*
X56392Y-29312D02*
X56704Y-29000D01*
X56392Y-31691D02*
X56392Y-29312D01*
X56741Y-32039D02*
X56392Y-31691D01*
X57000Y-32039D02*
X56741Y-32039D01*
X57000Y-32500D02*
X57000Y-32039D01*
X54079Y-39960D02*
X54000Y-40039D01*
X59000Y-39960D02*
X54079Y-39960D01*
X59000Y-39500D02*
X59000Y-39960D01*
X54000Y-40500D02*
X54000Y-40039D01*
X59460Y-30539D02*
X59000Y-30539D01*
X60539Y-29460D02*
X59460Y-30539D01*
X67500Y-29460D02*
X60539Y-29460D01*
X67500Y-29000D02*
X67500Y-29460D01*
X59000Y-31000D02*
X59000Y-30539D01*
X62000Y-27539D02*
X67500Y-27539D01*
X62000Y-28000D02*
X62000Y-27539D01*
X67500Y-28000D02*
X67500Y-27539D01*
X57960Y-32460D02*
X57000Y-31500D01*
X60539Y-32460D02*
X57960Y-32460D01*
X61539Y-31460D02*
X60539Y-32460D01*
X62000Y-31460D02*
X61539Y-31460D01*
X62000Y-31000D02*
X62000Y-31460D01*
X62749Y-31460D02*
X62000Y-31460D01*
X65050Y-33761D02*
X62749Y-31460D01*
X66555Y-33761D02*
X65050Y-33761D01*
X68951Y-36157D02*
X66555Y-33761D01*
X68951Y-36250D02*
X68951Y-36157D01*
X69741Y-37039D02*
X68951Y-36250D01*
X70000Y-37039D02*
X69741Y-37039D01*
X70000Y-37500D02*
X70000Y-37039D01*
X57460Y-27039D02*
X57000Y-27039D01*
X57960Y-26539D02*
X57460Y-27039D01*
X64500Y-26539D02*
X57960Y-26539D01*
X64500Y-27000D02*
X64500Y-26539D01*
X57000Y-27500D02*
X57000Y-27039D01*
X59000Y-40500D02*
X62000Y-40500D01*
X67420Y-40960D02*
X67500Y-41039D01*
X62000Y-40960D02*
X67420Y-40960D01*
X62000Y-40500D02*
X62000Y-40960D01*
X67500Y-41500D02*
X67500Y-41039D01*
X44101Y-29601D02*
X44000Y-29500D01*
X48197Y-29601D02*
X44101Y-29601D01*
X48539Y-29258D02*
X48197Y-29601D01*
X48539Y-29000D02*
X48539Y-29258D01*
X49000Y-29000D02*
X48539Y-29000D01*
X53655Y-39039D02*
X57000Y-39039D01*
X53381Y-39314D02*
X53655Y-39039D01*
X53381Y-41694D02*
X53381Y-39314D01*
X54138Y-42450D02*
X53381Y-41694D01*
X72509Y-42450D02*
X54138Y-42450D01*
X73000Y-41960D02*
X72509Y-42450D01*
X73000Y-41500D02*
X73000Y-41960D01*
X57000Y-39500D02*
X57000Y-39039D01*
X70000Y-27000D02*
X70000Y-26539D01*
X59839Y-24839D02*
X58000Y-23000D01*
X67751Y-24839D02*
X59839Y-24839D01*
X69451Y-26539D02*
X67751Y-24839D01*
X70000Y-26539D02*
X69451Y-26539D01*
X72539Y-27539D02*
X73000Y-27539D01*
X69108Y-24108D02*
X72539Y-27539D01*
X64608Y-24108D02*
X69108Y-24108D01*
X63500Y-23000D02*
X64608Y-24108D01*
X73000Y-28000D02*
X73000Y-27539D01*
X74460Y-27539D02*
X73000Y-27539D01*
X75000Y-27000D02*
X74460Y-27539D01*
X61539Y-40039D02*
X70000Y-40039D01*
X59460Y-37960D02*
X61539Y-40039D01*
X59000Y-37960D02*
X59460Y-37960D01*
X59000Y-37500D02*
X59000Y-37960D01*
X70000Y-40500D02*
X70000Y-40039D01*
X65039Y-36960D02*
X67500Y-36960D01*
X64500Y-37500D02*
X65039Y-36960D01*
X67500Y-36500D02*
X67500Y-36960D01*
X55870Y-25812D02*
X57591Y-24091D01*
X55870Y-26423D02*
X55870Y-25812D01*
X54293Y-28000D02*
X55870Y-26423D01*
X53500Y-28000D02*
X54293Y-28000D01*
X47500Y-34000D02*
X53500Y-28000D01*
X58544Y-25044D02*
X57591Y-24091D01*
X67550Y-25044D02*
X58544Y-25044D01*
X68136Y-25630D02*
X67550Y-25044D01*
X68136Y-26788D02*
X68136Y-25630D01*
X68634Y-27287D02*
X68136Y-26788D01*
X68634Y-27433D02*
X68634Y-27287D01*
X69701Y-28500D02*
X68634Y-27433D01*
X70853Y-28500D02*
X69701Y-28500D01*
X71853Y-29500D02*
X70853Y-28500D01*
X74000Y-29500D02*
X71853Y-29500D01*
X75000Y-30500D02*
X74000Y-29500D01*
X56500Y-23000D02*
X56500Y-23000D01*
X57591Y-24091D02*
X56500Y-23000D01*
X62000Y-39039D02*
X70000Y-39039D01*
X62000Y-39500D02*
X62000Y-39039D01*
X70000Y-39500D02*
X70000Y-39039D01*
X62283Y-30460D02*
X62000Y-30460D01*
X63250Y-31426D02*
X62283Y-30460D01*
X63250Y-31567D02*
X63250Y-31426D01*
X64705Y-33023D02*
X63250Y-31567D01*
X66652Y-33023D02*
X64705Y-33023D01*
X69645Y-36016D02*
X66652Y-33023D01*
X71516Y-36016D02*
X69645Y-36016D01*
X72539Y-37039D02*
X71516Y-36016D01*
X73000Y-37039D02*
X72539Y-37039D01*
X73000Y-37500D02*
X73000Y-37039D01*
X62000Y-30000D02*
X62000Y-30460D01*
X67770Y-28460D02*
X59000Y-28460D01*
X68810Y-29500D02*
X67770Y-28460D01*
X70718Y-29500D02*
X68810Y-29500D01*
X71758Y-30539D02*
X70718Y-29500D01*
X73333Y-30539D02*
X71758Y-30539D01*
X73609Y-30816D02*
X73333Y-30539D01*
X73609Y-32512D02*
X73609Y-30816D01*
X72390Y-33732D02*
X73609Y-32512D01*
X72390Y-35688D02*
X72390Y-33732D01*
X72741Y-36039D02*
X72390Y-35688D01*
X73000Y-36039D02*
X72741Y-36039D01*
X73000Y-36500D02*
X73000Y-36039D01*
X59000Y-28000D02*
X59000Y-28460D01*
X60481Y-33978D02*
X62000Y-32460D01*
X56756Y-33978D02*
X60481Y-33978D01*
X62000Y-32000D02*
X62000Y-32460D01*
X54460Y-37039D02*
X54000Y-37039D01*
X55478Y-36021D02*
X54460Y-37039D01*
X67812Y-36021D02*
X55478Y-36021D01*
X68251Y-36460D02*
X67812Y-36021D01*
X68251Y-36566D02*
X68251Y-36460D01*
X69724Y-38039D02*
X68251Y-36566D01*
X70539Y-38039D02*
X69724Y-38039D01*
X72539Y-40039D02*
X70539Y-38039D01*
X73000Y-40039D02*
X72539Y-40039D01*
X73000Y-40500D02*
X73000Y-40039D01*
X54000Y-37500D02*
X54000Y-37039D01*
X53726Y-38039D02*
X57000Y-38039D01*
X53380Y-37694D02*
X53726Y-38039D01*
X53380Y-36320D02*
X53380Y-37694D01*
X53741Y-35960D02*
X53380Y-36320D01*
X54000Y-35960D02*
X53741Y-35960D01*
X54000Y-35500D02*
X54000Y-35960D01*
X57000Y-38500D02*
X57000Y-38039D01*
X73000Y-30000D02*
X73600Y-30000D01*
X74537Y-30937D02*
X73600Y-30000D01*
X75428Y-30937D02*
X74537Y-30937D01*
X75428Y-37571D02*
X75428Y-30937D01*
X75000Y-38000D02*
X75428Y-37571D01*
X71614Y-23000D02*
X69000Y-23000D01*
X75428Y-26813D02*
X71614Y-23000D01*
X75428Y-30937D02*
X75428Y-26813D01*
X43499Y-32000D02*
X44000Y-31500D01*
X43499Y-39999D02*
X43499Y-32000D01*
X44000Y-40500D02*
X43499Y-39999D01*
X44000Y-31000D02*
X44000Y-31500D01*
X48581Y-25039D02*
X54000Y-25039D01*
X47000Y-26621D02*
X48581Y-25039D01*
X47000Y-29000D02*
X47000Y-26621D01*
X54000Y-25500D02*
X54000Y-25039D01*
X50500Y-26500D02*
X54000Y-26500D01*
X48000Y-29000D02*
X50500Y-26500D01*
X51701Y-27500D02*
X54000Y-27500D01*
X50460Y-28741D02*
X51701Y-27500D01*
X50460Y-29000D02*
X50460Y-28741D01*
X50000Y-29000D02*
X50460Y-29000D01*
G54D24*
X58223Y-31223D02*
X59000Y-32000D01*
X58223Y-30723D02*
X58223Y-31223D01*
X57000Y-29500D02*
X58223Y-30723D01*
X53098Y-22401D02*
X52500Y-23000D01*
X61401Y-22401D02*
X53098Y-22401D01*
X62000Y-23000D02*
X61401Y-22401D01*
X62595Y-22404D02*
X62000Y-23000D01*
X66904Y-22404D02*
X62595Y-22404D01*
X67500Y-23000D02*
X66904Y-22404D01*
X65108Y-32608D02*
X64500Y-32000D01*
X69900Y-32608D02*
X65108Y-32608D01*
X70000Y-32508D02*
X69900Y-32608D01*
X70000Y-32000D02*
X70000Y-32508D01*
X54605Y-42105D02*
X54000Y-41500D01*
X58903Y-42105D02*
X54605Y-42105D01*
X59000Y-42008D02*
X58903Y-42105D01*
X59000Y-41500D02*
X59000Y-42008D01*
X59096Y-42105D02*
X59000Y-42008D01*
X64403Y-42105D02*
X59096Y-42105D01*
X64500Y-42008D02*
X64403Y-42105D01*
X64500Y-41500D02*
X64500Y-42008D01*
X64596Y-42105D02*
X64500Y-42008D01*
X69903Y-42105D02*
X64596Y-42105D01*
X70000Y-42008D02*
X69903Y-42105D01*
X70000Y-41500D02*
X70000Y-42008D01*
X44000Y-36500D02*
X44548Y-36500D01*
X45500Y-36500D02*
X44548Y-36500D01*
X46270Y-35729D02*
X45500Y-36500D01*
X48729Y-31770D02*
X49500Y-31000D01*
X46270Y-31770D02*
X48729Y-31770D01*
X46270Y-35729D02*
X46270Y-31770D01*
X46270Y-31770D02*
X45500Y-31000D01*
X74421Y-32578D02*
X74421Y-35500D01*
X75000Y-32000D02*
X74421Y-32578D01*
X73000Y-35500D02*
X74421Y-35500D01*
X74500Y-35500D02*
X75000Y-36000D01*
X74421Y-35500D02*
X74500Y-35500D01*
X48729Y-35729D02*
X46270Y-35729D01*
X49500Y-36500D02*
X48729Y-35729D01*
X57000Y-28500D02*
X56351Y-28500D01*
X62099Y-25392D02*
X62000Y-25491D01*
X67400Y-25392D02*
X62099Y-25392D01*
X67500Y-25491D02*
X67400Y-25392D01*
X67500Y-26000D02*
X67500Y-25491D01*
X62000Y-26000D02*
X62000Y-25491D01*
X51126Y-34873D02*
X49500Y-36500D01*
X55550Y-34873D02*
X51126Y-34873D01*
X56041Y-34382D02*
X55550Y-34873D01*
X56041Y-28809D02*
X56041Y-34382D01*
X56351Y-28500D02*
X56041Y-28809D01*
X56650Y-34991D02*
X57000Y-34991D01*
X56041Y-34382D02*
X56650Y-34991D01*
X57000Y-35500D02*
X57000Y-34991D01*
X62104Y-34886D02*
X62000Y-34991D01*
X66886Y-34886D02*
X62104Y-34886D01*
X67500Y-35500D02*
X66886Y-34886D01*
X62000Y-35500D02*
X62000Y-35041D01*
X62000Y-35041D02*
X62000Y-34991D01*
X57097Y-34894D02*
X57000Y-34991D01*
X61902Y-34894D02*
X57097Y-34894D01*
X62000Y-34991D02*
X61902Y-34894D01*
G54D10*
G36*
X63761Y-25538D02*
X63646Y-25711D01*
X63588Y-26000D01*
X63597Y-26046D01*
X59902Y-26046D01*
X59911Y-26000D01*
X59853Y-25711D01*
X59738Y-25538D01*
X61554Y-25538D01*
X61428Y-25639D01*
X61323Y-25831D01*
X61316Y-25863D01*
X61365Y-25950D01*
X61950Y-25950D01*
X61950Y-25942D01*
X62050Y-25942D01*
X62050Y-25950D01*
X62634Y-25950D01*
X62683Y-25863D01*
X62676Y-25831D01*
X62571Y-25639D01*
X62445Y-25538D01*
X63761Y-25538D01*
X63761Y-25538D01*
G37*
G54D23*
X63761Y-25538D02*
X63646Y-25711D01*
X63588Y-26000D01*
X63597Y-26046D01*
X59902Y-26046D01*
X59911Y-26000D01*
X59853Y-25711D01*
X59738Y-25538D01*
X61554Y-25538D01*
X61428Y-25639D01*
X61323Y-25831D01*
X61316Y-25863D01*
X61365Y-25950D01*
X61950Y-25950D01*
X61950Y-25942D01*
X62050Y-25942D01*
X62050Y-25950D01*
X62634Y-25950D01*
X62683Y-25863D01*
X62676Y-25831D01*
X62571Y-25639D01*
X62445Y-25538D01*
X63761Y-25538D01*
G54D10*
G36*
X67557Y-26050D02*
X67550Y-26050D01*
X67550Y-26057D01*
X67450Y-26057D01*
X67450Y-26050D01*
X66865Y-26050D01*
X66816Y-26136D01*
X66823Y-26168D01*
X66928Y-26360D01*
X66946Y-26375D01*
X66809Y-26467D01*
X66646Y-26711D01*
X66588Y-27000D01*
X66597Y-27046D01*
X65402Y-27046D01*
X65411Y-27000D01*
X65353Y-26711D01*
X65212Y-26500D01*
X65353Y-26288D01*
X65411Y-26000D01*
X65353Y-25711D01*
X65238Y-25538D01*
X67054Y-25538D01*
X66928Y-25639D01*
X66823Y-25831D01*
X66816Y-25863D01*
X66865Y-25950D01*
X67450Y-25950D01*
X67450Y-25942D01*
X67550Y-25942D01*
X67550Y-25950D01*
X67557Y-25950D01*
X67557Y-26050D01*
X67557Y-26050D01*
G37*
G54D23*
X67557Y-26050D02*
X67550Y-26050D01*
X67550Y-26057D01*
X67450Y-26057D01*
X67450Y-26050D01*
X66865Y-26050D01*
X66816Y-26136D01*
X66823Y-26168D01*
X66928Y-26360D01*
X66946Y-26375D01*
X66809Y-26467D01*
X66646Y-26711D01*
X66588Y-27000D01*
X66597Y-27046D01*
X65402Y-27046D01*
X65411Y-27000D01*
X65353Y-26711D01*
X65212Y-26500D01*
X65353Y-26288D01*
X65411Y-26000D01*
X65353Y-25711D01*
X65238Y-25538D01*
X67054Y-25538D01*
X66928Y-25639D01*
X66823Y-25831D01*
X66816Y-25863D01*
X66865Y-25950D01*
X67450Y-25950D01*
X67450Y-25942D01*
X67550Y-25942D01*
X67550Y-25950D01*
X67557Y-25950D01*
X67557Y-26050D01*
G54D10*
G36*
X74450Y-26533D02*
X74391Y-26592D01*
X74281Y-26856D01*
X74281Y-27020D01*
X74255Y-27046D01*
X73902Y-27046D01*
X73911Y-27000D01*
X73853Y-26711D01*
X73690Y-26467D01*
X73553Y-26375D01*
X73571Y-26360D01*
X73676Y-26168D01*
X73683Y-26136D01*
X73634Y-26050D01*
X73050Y-26050D01*
X73050Y-26057D01*
X72950Y-26057D01*
X72950Y-26050D01*
X72950Y-25950D01*
X72950Y-25440D01*
X72810Y-25440D01*
X72599Y-25501D01*
X72428Y-25639D01*
X72323Y-25831D01*
X72316Y-25863D01*
X72365Y-25950D01*
X72950Y-25950D01*
X72950Y-26050D01*
X72365Y-26050D01*
X72316Y-26136D01*
X72323Y-26168D01*
X72428Y-26360D01*
X72446Y-26375D01*
X72309Y-26467D01*
X72251Y-26553D01*
X69457Y-23759D01*
X69324Y-23670D01*
X69420Y-23630D01*
X69558Y-23493D01*
X71410Y-23493D01*
X73492Y-25575D01*
X73400Y-25501D01*
X73190Y-25440D01*
X73050Y-25440D01*
X73050Y-25950D01*
X73634Y-25950D01*
X73683Y-25863D01*
X73676Y-25831D01*
X73589Y-25673D01*
X74450Y-26533D01*
X74450Y-26533D01*
G37*
G54D23*
X74450Y-26533D02*
X74391Y-26592D01*
X74281Y-26856D01*
X74281Y-27020D01*
X74255Y-27046D01*
X73902Y-27046D01*
X73911Y-27000D01*
X73853Y-26711D01*
X73690Y-26467D01*
X73553Y-26375D01*
X73571Y-26360D01*
X73676Y-26168D01*
X73683Y-26136D01*
X73634Y-26050D01*
X73050Y-26050D01*
X73050Y-26057D01*
X72950Y-26057D01*
X72950Y-26050D01*
X72950Y-25950D01*
X72950Y-25440D01*
X72810Y-25440D01*
X72599Y-25501D01*
X72428Y-25639D01*
X72323Y-25831D01*
X72316Y-25863D01*
X72365Y-25950D01*
X72950Y-25950D01*
X72950Y-26050D01*
X72365Y-26050D01*
X72316Y-26136D01*
X72323Y-26168D01*
X72428Y-26360D01*
X72446Y-26375D01*
X72309Y-26467D01*
X72251Y-26553D01*
X69457Y-23759D01*
X69324Y-23670D01*
X69420Y-23630D01*
X69558Y-23493D01*
X71410Y-23493D01*
X73492Y-25575D01*
X73400Y-25501D01*
X73190Y-25440D01*
X73050Y-25440D01*
X73050Y-25950D01*
X73634Y-25950D01*
X73683Y-25863D01*
X73676Y-25831D01*
X73589Y-25673D01*
X74450Y-26533D01*
G54D10*
G36*
X75950Y-41691D02*
X75705Y-41446D01*
X75248Y-41256D01*
X74753Y-41256D01*
X74296Y-41445D01*
X73946Y-41794D01*
X73756Y-42251D01*
X73756Y-42746D01*
X73945Y-43203D01*
X74191Y-43450D01*
X52743Y-43450D01*
X52743Y-41753D01*
X52554Y-41296D01*
X52416Y-41157D01*
X52416Y-39318D01*
X52416Y-36318D01*
X52416Y-33818D01*
X52277Y-33481D01*
X52019Y-33223D01*
X51683Y-33083D01*
X51318Y-33083D01*
X50981Y-33222D01*
X50723Y-33480D01*
X50583Y-33816D01*
X50583Y-34181D01*
X50722Y-34518D01*
X50980Y-34776D01*
X51316Y-34916D01*
X51681Y-34916D01*
X52018Y-34777D01*
X52276Y-34519D01*
X52416Y-34183D01*
X52416Y-33818D01*
X52416Y-36318D01*
X52277Y-35981D01*
X52019Y-35723D01*
X51683Y-35583D01*
X51318Y-35583D01*
X50981Y-35722D01*
X50723Y-35980D01*
X50583Y-36316D01*
X50583Y-36681D01*
X50722Y-37018D01*
X50980Y-37276D01*
X51316Y-37416D01*
X51681Y-37416D01*
X52018Y-37277D01*
X52276Y-37019D01*
X52416Y-36683D01*
X52416Y-36318D01*
X52416Y-39318D01*
X52277Y-38981D01*
X52019Y-38723D01*
X51683Y-38583D01*
X51318Y-38583D01*
X50981Y-38722D01*
X50723Y-38980D01*
X50583Y-39316D01*
X50583Y-39681D01*
X50722Y-40018D01*
X50980Y-40276D01*
X51316Y-40416D01*
X51681Y-40416D01*
X52018Y-40277D01*
X52276Y-40019D01*
X52416Y-39683D01*
X52416Y-39318D01*
X52416Y-41157D01*
X52205Y-40946D01*
X51748Y-40756D01*
X51253Y-40756D01*
X50796Y-40945D01*
X50446Y-41294D01*
X50337Y-41557D01*
X50337Y-39805D01*
X50337Y-39018D01*
X50269Y-38855D01*
X50226Y-38811D01*
X50226Y-36622D01*
X50218Y-36335D01*
X50123Y-36108D01*
X50010Y-36059D01*
X49940Y-36130D01*
X49940Y-35989D01*
X49891Y-35876D01*
X49622Y-35773D01*
X49335Y-35781D01*
X49108Y-35876D01*
X49059Y-35989D01*
X49500Y-36429D01*
X49940Y-35989D01*
X49940Y-36130D01*
X49570Y-36500D01*
X50010Y-36940D01*
X50123Y-36891D01*
X50226Y-36622D01*
X50226Y-38811D01*
X50145Y-38730D01*
X49982Y-38662D01*
X49940Y-38662D01*
X49940Y-37010D01*
X49500Y-36570D01*
X49429Y-36641D01*
X49429Y-36500D01*
X48989Y-36059D01*
X48876Y-36108D01*
X48773Y-36377D01*
X48781Y-36664D01*
X48876Y-36891D01*
X48989Y-36940D01*
X49429Y-36500D01*
X49429Y-36641D01*
X49059Y-37010D01*
X49108Y-37123D01*
X49377Y-37226D01*
X49664Y-37218D01*
X49891Y-37123D01*
X49940Y-37010D01*
X49940Y-38662D01*
X49805Y-38662D01*
X49018Y-38662D01*
X48855Y-38730D01*
X48730Y-38854D01*
X48662Y-39017D01*
X48662Y-39194D01*
X48662Y-39981D01*
X48730Y-40144D01*
X48854Y-40269D01*
X49017Y-40337D01*
X49194Y-40337D01*
X49981Y-40337D01*
X50144Y-40269D01*
X50269Y-40145D01*
X50337Y-39982D01*
X50337Y-39805D01*
X50337Y-41557D01*
X50256Y-41751D01*
X50256Y-42246D01*
X50445Y-42703D01*
X50794Y-43053D01*
X51251Y-43243D01*
X51746Y-43243D01*
X52203Y-43054D01*
X52553Y-42705D01*
X52743Y-42248D01*
X52743Y-41753D01*
X52743Y-43450D01*
X48416Y-43450D01*
X48416Y-39318D01*
X48416Y-36318D01*
X48277Y-35981D01*
X48019Y-35723D01*
X47683Y-35583D01*
X47318Y-35583D01*
X46981Y-35722D01*
X46723Y-35980D01*
X46583Y-36316D01*
X46583Y-36681D01*
X46722Y-37018D01*
X46980Y-37276D01*
X47316Y-37416D01*
X47681Y-37416D01*
X48018Y-37277D01*
X48276Y-37019D01*
X48416Y-36683D01*
X48416Y-36318D01*
X48416Y-39318D01*
X48277Y-38981D01*
X48019Y-38723D01*
X47683Y-38583D01*
X47318Y-38583D01*
X46981Y-38722D01*
X46723Y-38980D01*
X46583Y-39316D01*
X46583Y-39681D01*
X46722Y-40018D01*
X46980Y-40276D01*
X47316Y-40416D01*
X47681Y-40416D01*
X48018Y-40277D01*
X48276Y-40019D01*
X48416Y-39683D01*
X48416Y-39318D01*
X48416Y-43450D01*
X46337Y-43450D01*
X46337Y-39805D01*
X46337Y-39018D01*
X46337Y-34305D01*
X46337Y-33518D01*
X46269Y-33355D01*
X46226Y-33311D01*
X46226Y-31122D01*
X46218Y-30835D01*
X46123Y-30608D01*
X46010Y-30559D01*
X45940Y-30630D01*
X45940Y-30489D01*
X45891Y-30376D01*
X45622Y-30273D01*
X45335Y-30281D01*
X45108Y-30376D01*
X45059Y-30489D01*
X45500Y-30929D01*
X45940Y-30489D01*
X45940Y-30630D01*
X45570Y-31000D01*
X46010Y-31440D01*
X46123Y-31391D01*
X46226Y-31122D01*
X46226Y-33311D01*
X46145Y-33230D01*
X45982Y-33162D01*
X45940Y-33162D01*
X45940Y-31510D01*
X45500Y-31070D01*
X45059Y-31510D01*
X45108Y-31623D01*
X45377Y-31726D01*
X45664Y-31718D01*
X45891Y-31623D01*
X45940Y-31510D01*
X45940Y-33162D01*
X45805Y-33162D01*
X45018Y-33162D01*
X44855Y-33230D01*
X44730Y-33354D01*
X44662Y-33517D01*
X44662Y-33694D01*
X44662Y-34481D01*
X44730Y-34644D01*
X44854Y-34769D01*
X45017Y-34837D01*
X45194Y-34837D01*
X45981Y-34837D01*
X46144Y-34769D01*
X46269Y-34645D01*
X46337Y-34482D01*
X46337Y-34305D01*
X46337Y-39018D01*
X46269Y-38855D01*
X46226Y-38811D01*
X46226Y-36622D01*
X46218Y-36335D01*
X46123Y-36108D01*
X46010Y-36059D01*
X45940Y-36130D01*
X45940Y-35989D01*
X45891Y-35876D01*
X45622Y-35773D01*
X45335Y-35781D01*
X45108Y-35876D01*
X45059Y-35989D01*
X45500Y-36429D01*
X45940Y-35989D01*
X45940Y-36130D01*
X45570Y-36500D01*
X46010Y-36940D01*
X46123Y-36891D01*
X46226Y-36622D01*
X46226Y-38811D01*
X46145Y-38730D01*
X45982Y-38662D01*
X45940Y-38662D01*
X45940Y-37010D01*
X45500Y-36570D01*
X45429Y-36641D01*
X45429Y-36500D01*
X44989Y-36059D01*
X44876Y-36108D01*
X44773Y-36377D01*
X44781Y-36664D01*
X44876Y-36891D01*
X44989Y-36940D01*
X45429Y-36500D01*
X45429Y-36641D01*
X45059Y-37010D01*
X45108Y-37123D01*
X45377Y-37226D01*
X45664Y-37218D01*
X45891Y-37123D01*
X45940Y-37010D01*
X45940Y-38662D01*
X45805Y-38662D01*
X45018Y-38662D01*
X44855Y-38730D01*
X44730Y-38854D01*
X44662Y-39017D01*
X44662Y-39194D01*
X44662Y-39981D01*
X44730Y-40144D01*
X44854Y-40269D01*
X45017Y-40337D01*
X45194Y-40337D01*
X45981Y-40337D01*
X46144Y-40269D01*
X46269Y-40145D01*
X46337Y-39982D01*
X46337Y-39805D01*
X46337Y-43450D01*
X45308Y-43450D01*
X45553Y-43205D01*
X45743Y-42748D01*
X45743Y-42253D01*
X45554Y-41796D01*
X45205Y-41446D01*
X44748Y-41256D01*
X44253Y-41256D01*
X43796Y-41445D01*
X43446Y-41794D01*
X43256Y-42251D01*
X43256Y-42746D01*
X43445Y-43203D01*
X43691Y-43450D01*
X43050Y-43450D01*
X43050Y-40198D01*
X43150Y-40348D01*
X43206Y-40404D01*
X43206Y-40657D01*
X43326Y-40949D01*
X43549Y-41172D01*
X43841Y-41293D01*
X44157Y-41293D01*
X44449Y-41173D01*
X44672Y-40950D01*
X44793Y-40658D01*
X44793Y-40342D01*
X44673Y-40050D01*
X44600Y-39977D01*
X44600Y-36899D01*
X44600Y-36100D01*
X44562Y-36008D01*
X44491Y-35938D01*
X44399Y-35900D01*
X44300Y-35899D01*
X44112Y-35900D01*
X44050Y-35962D01*
X44050Y-36450D01*
X44537Y-36450D01*
X44600Y-36387D01*
X44600Y-36100D01*
X44600Y-36899D01*
X44600Y-36612D01*
X44537Y-36550D01*
X44050Y-36550D01*
X44050Y-37037D01*
X44112Y-37100D01*
X44300Y-37100D01*
X44399Y-37099D01*
X44491Y-37061D01*
X44562Y-36991D01*
X44600Y-36899D01*
X44600Y-39977D01*
X44450Y-39827D01*
X44158Y-39706D01*
X43993Y-39706D01*
X43993Y-35793D01*
X44157Y-35793D01*
X44449Y-35673D01*
X44672Y-35450D01*
X44793Y-35158D01*
X44793Y-34842D01*
X44673Y-34550D01*
X44450Y-34327D01*
X44158Y-34206D01*
X43993Y-34206D01*
X43993Y-32204D01*
X44349Y-31849D01*
X44386Y-31793D01*
X44437Y-31793D01*
X44601Y-31726D01*
X44725Y-31601D01*
X44793Y-31438D01*
X44793Y-31262D01*
X44793Y-31192D01*
X44876Y-31391D01*
X44989Y-31440D01*
X45429Y-31000D01*
X44989Y-30559D01*
X44876Y-30608D01*
X44793Y-30824D01*
X44793Y-30562D01*
X44726Y-30398D01*
X44601Y-30274D01*
X44438Y-30206D01*
X44369Y-30206D01*
X44449Y-30173D01*
X44527Y-30095D01*
X47290Y-30095D01*
X46981Y-30222D01*
X46723Y-30480D01*
X46583Y-30816D01*
X46583Y-31181D01*
X46722Y-31518D01*
X46980Y-31776D01*
X47316Y-31916D01*
X47681Y-31916D01*
X48018Y-31777D01*
X48276Y-31519D01*
X48416Y-31183D01*
X48416Y-30818D01*
X48277Y-30481D01*
X48019Y-30223D01*
X47710Y-30095D01*
X48197Y-30095D01*
X48385Y-30057D01*
X48546Y-29950D01*
X48670Y-29826D01*
X48711Y-29853D01*
X49000Y-29911D01*
X49288Y-29853D01*
X49500Y-29712D01*
X49711Y-29853D01*
X50000Y-29911D01*
X50288Y-29853D01*
X50500Y-29712D01*
X50711Y-29853D01*
X50908Y-29893D01*
X50144Y-30657D01*
X50123Y-30608D01*
X50010Y-30559D01*
X49940Y-30630D01*
X49940Y-30489D01*
X49891Y-30376D01*
X49622Y-30273D01*
X49335Y-30281D01*
X49108Y-30376D01*
X49059Y-30489D01*
X49500Y-30929D01*
X49940Y-30489D01*
X49940Y-30630D01*
X49570Y-31000D01*
X49576Y-31005D01*
X49505Y-31076D01*
X49500Y-31070D01*
X49429Y-31141D01*
X49429Y-31000D01*
X48989Y-30559D01*
X48876Y-30608D01*
X48773Y-30877D01*
X48781Y-31164D01*
X48876Y-31391D01*
X48989Y-31440D01*
X49429Y-31000D01*
X49429Y-31141D01*
X49059Y-31510D01*
X49108Y-31623D01*
X49158Y-31643D01*
X47707Y-33094D01*
X47683Y-33083D01*
X47318Y-33083D01*
X46981Y-33222D01*
X46723Y-33480D01*
X46583Y-33816D01*
X46583Y-34181D01*
X46722Y-34518D01*
X46980Y-34776D01*
X47316Y-34916D01*
X47681Y-34916D01*
X48018Y-34777D01*
X48276Y-34519D01*
X48416Y-34183D01*
X48416Y-33818D01*
X48405Y-33792D01*
X48662Y-33535D01*
X48662Y-33694D01*
X48662Y-34481D01*
X48730Y-34644D01*
X48854Y-34769D01*
X49017Y-34837D01*
X49194Y-34837D01*
X49981Y-34837D01*
X50144Y-34769D01*
X50269Y-34645D01*
X50337Y-34482D01*
X50337Y-34305D01*
X50337Y-33518D01*
X50269Y-33355D01*
X50145Y-33230D01*
X49982Y-33162D01*
X49805Y-33162D01*
X49035Y-33162D01*
X50710Y-31487D01*
X50722Y-31518D01*
X50980Y-31776D01*
X51316Y-31916D01*
X51681Y-31916D01*
X52018Y-31777D01*
X52276Y-31519D01*
X52416Y-31183D01*
X52416Y-30818D01*
X52277Y-30481D01*
X52019Y-30223D01*
X51987Y-30210D01*
X53251Y-28946D01*
X53287Y-29000D01*
X53146Y-29211D01*
X53088Y-29500D01*
X53146Y-29788D01*
X53287Y-30000D01*
X53146Y-30211D01*
X53088Y-30500D01*
X53146Y-30788D01*
X53287Y-31000D01*
X53146Y-31211D01*
X53088Y-31500D01*
X53146Y-31788D01*
X53287Y-32000D01*
X53146Y-32211D01*
X53088Y-32500D01*
X53146Y-32788D01*
X53309Y-33032D01*
X53554Y-33196D01*
X53842Y-33253D01*
X54157Y-33253D01*
X54445Y-33196D01*
X54690Y-33032D01*
X54853Y-32788D01*
X54911Y-32500D01*
X54853Y-32211D01*
X54712Y-32000D01*
X54853Y-31788D01*
X54911Y-31500D01*
X54853Y-31211D01*
X54712Y-31000D01*
X54853Y-30788D01*
X54911Y-30500D01*
X54853Y-30211D01*
X54712Y-30000D01*
X54853Y-29788D01*
X54911Y-29500D01*
X54853Y-29211D01*
X54712Y-29000D01*
X54853Y-28788D01*
X54911Y-28500D01*
X54853Y-28211D01*
X54824Y-28167D01*
X56169Y-26822D01*
X56287Y-27000D01*
X56146Y-27211D01*
X56088Y-27500D01*
X56146Y-27788D01*
X56309Y-28032D01*
X56446Y-28124D01*
X56428Y-28139D01*
X56323Y-28331D01*
X56316Y-28363D01*
X56365Y-28450D01*
X56950Y-28450D01*
X56950Y-28442D01*
X57050Y-28442D01*
X57050Y-28450D01*
X57057Y-28450D01*
X57057Y-28506D01*
X56704Y-28506D01*
X56515Y-28543D01*
X56506Y-28550D01*
X56365Y-28550D01*
X56316Y-28636D01*
X56323Y-28668D01*
X56328Y-28677D01*
X56043Y-28963D01*
X55936Y-29123D01*
X55898Y-29312D01*
X55898Y-31691D01*
X55936Y-31880D01*
X56043Y-32040D01*
X56106Y-32103D01*
X56106Y-32277D01*
X56106Y-32897D01*
X56173Y-33061D01*
X56298Y-33185D01*
X56461Y-33253D01*
X56637Y-33253D01*
X57537Y-33253D01*
X57701Y-33186D01*
X57825Y-33061D01*
X57877Y-32937D01*
X57922Y-32946D01*
X57960Y-32953D01*
X57960Y-32953D01*
X57960Y-32953D01*
X60539Y-32953D01*
X60728Y-32916D01*
X60888Y-32809D01*
X61162Y-32535D01*
X61173Y-32561D01*
X61187Y-32574D01*
X60277Y-33484D01*
X57137Y-33484D01*
X57107Y-33454D01*
X56879Y-33359D01*
X56633Y-33359D01*
X56406Y-33453D01*
X56232Y-33627D01*
X56137Y-33854D01*
X56137Y-34101D01*
X56231Y-34328D01*
X56405Y-34502D01*
X56632Y-34597D01*
X56878Y-34597D01*
X57106Y-34503D01*
X57137Y-34472D01*
X60481Y-34472D01*
X60670Y-34434D01*
X60830Y-34327D01*
X62349Y-32809D01*
X62386Y-32753D01*
X62537Y-32753D01*
X62701Y-32686D01*
X62825Y-32561D01*
X62893Y-32398D01*
X62893Y-32302D01*
X64701Y-34110D01*
X64701Y-34110D01*
X64861Y-34217D01*
X64861Y-34217D01*
X65050Y-34255D01*
X65050Y-34255D01*
X66351Y-34255D01*
X67098Y-35002D01*
X66928Y-35139D01*
X66823Y-35331D01*
X66816Y-35363D01*
X66865Y-35450D01*
X67450Y-35450D01*
X67450Y-35442D01*
X67538Y-35442D01*
X67557Y-35461D01*
X67557Y-35527D01*
X65405Y-35527D01*
X65411Y-35500D01*
X65353Y-35211D01*
X65190Y-34967D01*
X64945Y-34803D01*
X64657Y-34746D01*
X64342Y-34746D01*
X64054Y-34803D01*
X63809Y-34967D01*
X63646Y-35211D01*
X63588Y-35500D01*
X63594Y-35527D01*
X62683Y-35527D01*
X62683Y-35363D01*
X62676Y-35331D01*
X62571Y-35139D01*
X62400Y-35001D01*
X62190Y-34940D01*
X62050Y-34940D01*
X62050Y-35450D01*
X62634Y-35450D01*
X62683Y-35363D01*
X62683Y-35527D01*
X61950Y-35527D01*
X61950Y-35450D01*
X61950Y-34940D01*
X61810Y-34940D01*
X61599Y-35001D01*
X61428Y-35139D01*
X61323Y-35331D01*
X61316Y-35363D01*
X61365Y-35450D01*
X61950Y-35450D01*
X61950Y-35527D01*
X59905Y-35527D01*
X59911Y-35500D01*
X59853Y-35211D01*
X59690Y-34967D01*
X59445Y-34803D01*
X59157Y-34746D01*
X58842Y-34746D01*
X58554Y-34803D01*
X58309Y-34967D01*
X58146Y-35211D01*
X58088Y-35500D01*
X58094Y-35527D01*
X57683Y-35527D01*
X57683Y-35363D01*
X57676Y-35331D01*
X57571Y-35139D01*
X57400Y-35001D01*
X57190Y-34940D01*
X57050Y-34940D01*
X57050Y-35450D01*
X57634Y-35450D01*
X57683Y-35363D01*
X57683Y-35527D01*
X56950Y-35527D01*
X56950Y-35450D01*
X56950Y-34940D01*
X56810Y-34940D01*
X56599Y-35001D01*
X56428Y-35139D01*
X56323Y-35331D01*
X56316Y-35363D01*
X56365Y-35450D01*
X56950Y-35450D01*
X56950Y-35527D01*
X55478Y-35527D01*
X55289Y-35565D01*
X55129Y-35672D01*
X54748Y-36053D01*
X54712Y-36000D01*
X54853Y-35788D01*
X54911Y-35500D01*
X54853Y-35211D01*
X54690Y-34967D01*
X54445Y-34803D01*
X54157Y-34746D01*
X53842Y-34746D01*
X53554Y-34803D01*
X53309Y-34967D01*
X53146Y-35211D01*
X53088Y-35500D01*
X53146Y-35788D01*
X53173Y-35829D01*
X53031Y-35971D01*
X52924Y-36131D01*
X52887Y-36320D01*
X52887Y-37694D01*
X52924Y-37883D01*
X53031Y-38043D01*
X53167Y-38179D01*
X53146Y-38211D01*
X53088Y-38500D01*
X53146Y-38788D01*
X53171Y-38826D01*
X53032Y-38965D01*
X52925Y-39125D01*
X52887Y-39314D01*
X52887Y-41694D01*
X52925Y-41883D01*
X53032Y-42043D01*
X53789Y-42799D01*
X53949Y-42906D01*
X54138Y-42944D01*
X72509Y-42944D01*
X72698Y-42906D01*
X72858Y-42799D01*
X73349Y-42309D01*
X73386Y-42253D01*
X73537Y-42253D01*
X73701Y-42186D01*
X73825Y-42061D01*
X73893Y-41898D01*
X73893Y-41722D01*
X73893Y-41102D01*
X73826Y-40938D01*
X73782Y-40895D01*
X73853Y-40788D01*
X73911Y-40500D01*
X73853Y-40211D01*
X73712Y-40000D01*
X73853Y-39788D01*
X73911Y-39500D01*
X73853Y-39211D01*
X73712Y-39000D01*
X73853Y-38788D01*
X73911Y-38500D01*
X73853Y-38211D01*
X73712Y-38000D01*
X73853Y-37788D01*
X73911Y-37500D01*
X73853Y-37211D01*
X73712Y-37000D01*
X73853Y-36788D01*
X73911Y-36500D01*
X73853Y-36211D01*
X73690Y-35967D01*
X73553Y-35875D01*
X73571Y-35860D01*
X73676Y-35668D01*
X73683Y-35636D01*
X73683Y-35363D01*
X73676Y-35331D01*
X73571Y-35139D01*
X73400Y-35001D01*
X73190Y-34940D01*
X73050Y-34940D01*
X73050Y-35450D01*
X73634Y-35450D01*
X73683Y-35363D01*
X73683Y-35636D01*
X73634Y-35550D01*
X73050Y-35550D01*
X73050Y-35556D01*
X73000Y-35546D01*
X72945Y-35546D01*
X72942Y-35542D01*
X72942Y-35450D01*
X72950Y-35450D01*
X72950Y-34940D01*
X72883Y-34940D01*
X72883Y-33937D01*
X73959Y-32861D01*
X74066Y-32701D01*
X74103Y-32512D01*
X74103Y-31201D01*
X74188Y-31286D01*
X74348Y-31393D01*
X74537Y-31431D01*
X74934Y-31431D01*
X74934Y-31477D01*
X74867Y-31481D01*
X74727Y-31539D01*
X74702Y-31632D01*
X74934Y-31864D01*
X74934Y-32135D01*
X74929Y-32141D01*
X74929Y-32000D01*
X74632Y-31702D01*
X74539Y-31727D01*
X74470Y-31924D01*
X74481Y-32132D01*
X74539Y-32272D01*
X74632Y-32297D01*
X74929Y-32000D01*
X74929Y-32141D01*
X74702Y-32367D01*
X74727Y-32460D01*
X74924Y-32529D01*
X74934Y-32529D01*
X74934Y-33281D01*
X74857Y-33281D01*
X74593Y-33390D01*
X74391Y-33592D01*
X74281Y-33856D01*
X74281Y-34142D01*
X74390Y-34406D01*
X74592Y-34608D01*
X74856Y-34718D01*
X74934Y-34718D01*
X74934Y-35477D01*
X74867Y-35481D01*
X74727Y-35539D01*
X74702Y-35632D01*
X74934Y-35864D01*
X74934Y-36135D01*
X74929Y-36141D01*
X74929Y-36000D01*
X74632Y-35702D01*
X74539Y-35727D01*
X74470Y-35924D01*
X74481Y-36132D01*
X74539Y-36272D01*
X74632Y-36297D01*
X74929Y-36000D01*
X74929Y-36141D01*
X74702Y-36367D01*
X74727Y-36460D01*
X74924Y-36529D01*
X74934Y-36529D01*
X74934Y-37281D01*
X74857Y-37281D01*
X74593Y-37390D01*
X74391Y-37592D01*
X74281Y-37856D01*
X74281Y-38142D01*
X74390Y-38406D01*
X74592Y-38608D01*
X74856Y-38718D01*
X75142Y-38718D01*
X75406Y-38609D01*
X75608Y-38407D01*
X75718Y-38143D01*
X75718Y-37979D01*
X75777Y-37920D01*
X75777Y-37920D01*
X75777Y-37920D01*
X75884Y-37760D01*
X75884Y-37760D01*
X75914Y-37608D01*
X75922Y-37571D01*
X75922Y-37571D01*
X75922Y-37571D01*
X75922Y-30937D01*
X75922Y-26813D01*
X75884Y-26624D01*
X75777Y-26464D01*
X75529Y-26216D01*
X74798Y-25485D01*
X74924Y-25529D01*
X75132Y-25518D01*
X75272Y-25460D01*
X75297Y-25367D01*
X75000Y-25070D01*
X74994Y-25076D01*
X74923Y-25005D01*
X74929Y-25000D01*
X74923Y-24994D01*
X74994Y-24923D01*
X75000Y-24929D01*
X75005Y-24923D01*
X75076Y-24994D01*
X75070Y-25000D01*
X75367Y-25297D01*
X75460Y-25272D01*
X75529Y-25075D01*
X75518Y-24867D01*
X75460Y-24727D01*
X75367Y-24702D01*
X75383Y-24687D01*
X75703Y-24554D01*
X75950Y-24308D01*
X75950Y-41691D01*
X75950Y-41691D01*
G37*
G54D23*
X75950Y-41691D02*
X75705Y-41446D01*
X75248Y-41256D01*
X74753Y-41256D01*
X74296Y-41445D01*
X73946Y-41794D01*
X73756Y-42251D01*
X73756Y-42746D01*
X73945Y-43203D01*
X74191Y-43450D01*
X52743Y-43450D01*
X52743Y-41753D01*
X52554Y-41296D01*
X52416Y-41157D01*
X52416Y-39318D01*
X52416Y-36318D01*
X52416Y-33818D01*
X52277Y-33481D01*
X52019Y-33223D01*
X51683Y-33083D01*
X51318Y-33083D01*
X50981Y-33222D01*
X50723Y-33480D01*
X50583Y-33816D01*
X50583Y-34181D01*
X50722Y-34518D01*
X50980Y-34776D01*
X51316Y-34916D01*
X51681Y-34916D01*
X52018Y-34777D01*
X52276Y-34519D01*
X52416Y-34183D01*
X52416Y-33818D01*
X52416Y-36318D01*
X52277Y-35981D01*
X52019Y-35723D01*
X51683Y-35583D01*
X51318Y-35583D01*
X50981Y-35722D01*
X50723Y-35980D01*
X50583Y-36316D01*
X50583Y-36681D01*
X50722Y-37018D01*
X50980Y-37276D01*
X51316Y-37416D01*
X51681Y-37416D01*
X52018Y-37277D01*
X52276Y-37019D01*
X52416Y-36683D01*
X52416Y-36318D01*
X52416Y-39318D01*
X52277Y-38981D01*
X52019Y-38723D01*
X51683Y-38583D01*
X51318Y-38583D01*
X50981Y-38722D01*
X50723Y-38980D01*
X50583Y-39316D01*
X50583Y-39681D01*
X50722Y-40018D01*
X50980Y-40276D01*
X51316Y-40416D01*
X51681Y-40416D01*
X52018Y-40277D01*
X52276Y-40019D01*
X52416Y-39683D01*
X52416Y-39318D01*
X52416Y-41157D01*
X52205Y-40946D01*
X51748Y-40756D01*
X51253Y-40756D01*
X50796Y-40945D01*
X50446Y-41294D01*
X50337Y-41557D01*
X50337Y-39805D01*
X50337Y-39018D01*
X50269Y-38855D01*
X50226Y-38811D01*
X50226Y-36622D01*
X50218Y-36335D01*
X50123Y-36108D01*
X50010Y-36059D01*
X49940Y-36130D01*
X49940Y-35989D01*
X49891Y-35876D01*
X49622Y-35773D01*
X49335Y-35781D01*
X49108Y-35876D01*
X49059Y-35989D01*
X49500Y-36429D01*
X49940Y-35989D01*
X49940Y-36130D01*
X49570Y-36500D01*
X50010Y-36940D01*
X50123Y-36891D01*
X50226Y-36622D01*
X50226Y-38811D01*
X50145Y-38730D01*
X49982Y-38662D01*
X49940Y-38662D01*
X49940Y-37010D01*
X49500Y-36570D01*
X49429Y-36641D01*
X49429Y-36500D01*
X48989Y-36059D01*
X48876Y-36108D01*
X48773Y-36377D01*
X48781Y-36664D01*
X48876Y-36891D01*
X48989Y-36940D01*
X49429Y-36500D01*
X49429Y-36641D01*
X49059Y-37010D01*
X49108Y-37123D01*
X49377Y-37226D01*
X49664Y-37218D01*
X49891Y-37123D01*
X49940Y-37010D01*
X49940Y-38662D01*
X49805Y-38662D01*
X49018Y-38662D01*
X48855Y-38730D01*
X48730Y-38854D01*
X48662Y-39017D01*
X48662Y-39194D01*
X48662Y-39981D01*
X48730Y-40144D01*
X48854Y-40269D01*
X49017Y-40337D01*
X49194Y-40337D01*
X49981Y-40337D01*
X50144Y-40269D01*
X50269Y-40145D01*
X50337Y-39982D01*
X50337Y-39805D01*
X50337Y-41557D01*
X50256Y-41751D01*
X50256Y-42246D01*
X50445Y-42703D01*
X50794Y-43053D01*
X51251Y-43243D01*
X51746Y-43243D01*
X52203Y-43054D01*
X52553Y-42705D01*
X52743Y-42248D01*
X52743Y-41753D01*
X52743Y-43450D01*
X48416Y-43450D01*
X48416Y-39318D01*
X48416Y-36318D01*
X48277Y-35981D01*
X48019Y-35723D01*
X47683Y-35583D01*
X47318Y-35583D01*
X46981Y-35722D01*
X46723Y-35980D01*
X46583Y-36316D01*
X46583Y-36681D01*
X46722Y-37018D01*
X46980Y-37276D01*
X47316Y-37416D01*
X47681Y-37416D01*
X48018Y-37277D01*
X48276Y-37019D01*
X48416Y-36683D01*
X48416Y-36318D01*
X48416Y-39318D01*
X48277Y-38981D01*
X48019Y-38723D01*
X47683Y-38583D01*
X47318Y-38583D01*
X46981Y-38722D01*
X46723Y-38980D01*
X46583Y-39316D01*
X46583Y-39681D01*
X46722Y-40018D01*
X46980Y-40276D01*
X47316Y-40416D01*
X47681Y-40416D01*
X48018Y-40277D01*
X48276Y-40019D01*
X48416Y-39683D01*
X48416Y-39318D01*
X48416Y-43450D01*
X46337Y-43450D01*
X46337Y-39805D01*
X46337Y-39018D01*
X46337Y-34305D01*
X46337Y-33518D01*
X46269Y-33355D01*
X46226Y-33311D01*
X46226Y-31122D01*
X46218Y-30835D01*
X46123Y-30608D01*
X46010Y-30559D01*
X45940Y-30630D01*
X45940Y-30489D01*
X45891Y-30376D01*
X45622Y-30273D01*
X45335Y-30281D01*
X45108Y-30376D01*
X45059Y-30489D01*
X45500Y-30929D01*
X45940Y-30489D01*
X45940Y-30630D01*
X45570Y-31000D01*
X46010Y-31440D01*
X46123Y-31391D01*
X46226Y-31122D01*
X46226Y-33311D01*
X46145Y-33230D01*
X45982Y-33162D01*
X45940Y-33162D01*
X45940Y-31510D01*
X45500Y-31070D01*
X45059Y-31510D01*
X45108Y-31623D01*
X45377Y-31726D01*
X45664Y-31718D01*
X45891Y-31623D01*
X45940Y-31510D01*
X45940Y-33162D01*
X45805Y-33162D01*
X45018Y-33162D01*
X44855Y-33230D01*
X44730Y-33354D01*
X44662Y-33517D01*
X44662Y-33694D01*
X44662Y-34481D01*
X44730Y-34644D01*
X44854Y-34769D01*
X45017Y-34837D01*
X45194Y-34837D01*
X45981Y-34837D01*
X46144Y-34769D01*
X46269Y-34645D01*
X46337Y-34482D01*
X46337Y-34305D01*
X46337Y-39018D01*
X46269Y-38855D01*
X46226Y-38811D01*
X46226Y-36622D01*
X46218Y-36335D01*
X46123Y-36108D01*
X46010Y-36059D01*
X45940Y-36130D01*
X45940Y-35989D01*
X45891Y-35876D01*
X45622Y-35773D01*
X45335Y-35781D01*
X45108Y-35876D01*
X45059Y-35989D01*
X45500Y-36429D01*
X45940Y-35989D01*
X45940Y-36130D01*
X45570Y-36500D01*
X46010Y-36940D01*
X46123Y-36891D01*
X46226Y-36622D01*
X46226Y-38811D01*
X46145Y-38730D01*
X45982Y-38662D01*
X45940Y-38662D01*
X45940Y-37010D01*
X45500Y-36570D01*
X45429Y-36641D01*
X45429Y-36500D01*
X44989Y-36059D01*
X44876Y-36108D01*
X44773Y-36377D01*
X44781Y-36664D01*
X44876Y-36891D01*
X44989Y-36940D01*
X45429Y-36500D01*
X45429Y-36641D01*
X45059Y-37010D01*
X45108Y-37123D01*
X45377Y-37226D01*
X45664Y-37218D01*
X45891Y-37123D01*
X45940Y-37010D01*
X45940Y-38662D01*
X45805Y-38662D01*
X45018Y-38662D01*
X44855Y-38730D01*
X44730Y-38854D01*
X44662Y-39017D01*
X44662Y-39194D01*
X44662Y-39981D01*
X44730Y-40144D01*
X44854Y-40269D01*
X45017Y-40337D01*
X45194Y-40337D01*
X45981Y-40337D01*
X46144Y-40269D01*
X46269Y-40145D01*
X46337Y-39982D01*
X46337Y-39805D01*
X46337Y-43450D01*
X45308Y-43450D01*
X45553Y-43205D01*
X45743Y-42748D01*
X45743Y-42253D01*
X45554Y-41796D01*
X45205Y-41446D01*
X44748Y-41256D01*
X44253Y-41256D01*
X43796Y-41445D01*
X43446Y-41794D01*
X43256Y-42251D01*
X43256Y-42746D01*
X43445Y-43203D01*
X43691Y-43450D01*
X43050Y-43450D01*
X43050Y-40198D01*
X43150Y-40348D01*
X43206Y-40404D01*
X43206Y-40657D01*
X43326Y-40949D01*
X43549Y-41172D01*
X43841Y-41293D01*
X44157Y-41293D01*
X44449Y-41173D01*
X44672Y-40950D01*
X44793Y-40658D01*
X44793Y-40342D01*
X44673Y-40050D01*
X44600Y-39977D01*
X44600Y-36899D01*
X44600Y-36100D01*
X44562Y-36008D01*
X44491Y-35938D01*
X44399Y-35900D01*
X44300Y-35899D01*
X44112Y-35900D01*
X44050Y-35962D01*
X44050Y-36450D01*
X44537Y-36450D01*
X44600Y-36387D01*
X44600Y-36100D01*
X44600Y-36899D01*
X44600Y-36612D01*
X44537Y-36550D01*
X44050Y-36550D01*
X44050Y-37037D01*
X44112Y-37100D01*
X44300Y-37100D01*
X44399Y-37099D01*
X44491Y-37061D01*
X44562Y-36991D01*
X44600Y-36899D01*
X44600Y-39977D01*
X44450Y-39827D01*
X44158Y-39706D01*
X43993Y-39706D01*
X43993Y-35793D01*
X44157Y-35793D01*
X44449Y-35673D01*
X44672Y-35450D01*
X44793Y-35158D01*
X44793Y-34842D01*
X44673Y-34550D01*
X44450Y-34327D01*
X44158Y-34206D01*
X43993Y-34206D01*
X43993Y-32204D01*
X44349Y-31849D01*
X44386Y-31793D01*
X44437Y-31793D01*
X44601Y-31726D01*
X44725Y-31601D01*
X44793Y-31438D01*
X44793Y-31262D01*
X44793Y-31192D01*
X44876Y-31391D01*
X44989Y-31440D01*
X45429Y-31000D01*
X44989Y-30559D01*
X44876Y-30608D01*
X44793Y-30824D01*
X44793Y-30562D01*
X44726Y-30398D01*
X44601Y-30274D01*
X44438Y-30206D01*
X44369Y-30206D01*
X44449Y-30173D01*
X44527Y-30095D01*
X47290Y-30095D01*
X46981Y-30222D01*
X46723Y-30480D01*
X46583Y-30816D01*
X46583Y-31181D01*
X46722Y-31518D01*
X46980Y-31776D01*
X47316Y-31916D01*
X47681Y-31916D01*
X48018Y-31777D01*
X48276Y-31519D01*
X48416Y-31183D01*
X48416Y-30818D01*
X48277Y-30481D01*
X48019Y-30223D01*
X47710Y-30095D01*
X48197Y-30095D01*
X48385Y-30057D01*
X48546Y-29950D01*
X48670Y-29826D01*
X48711Y-29853D01*
X49000Y-29911D01*
X49288Y-29853D01*
X49500Y-29712D01*
X49711Y-29853D01*
X50000Y-29911D01*
X50288Y-29853D01*
X50500Y-29712D01*
X50711Y-29853D01*
X50908Y-29893D01*
X50144Y-30657D01*
X50123Y-30608D01*
X50010Y-30559D01*
X49940Y-30630D01*
X49940Y-30489D01*
X49891Y-30376D01*
X49622Y-30273D01*
X49335Y-30281D01*
X49108Y-30376D01*
X49059Y-30489D01*
X49500Y-30929D01*
X49940Y-30489D01*
X49940Y-30630D01*
X49570Y-31000D01*
X49576Y-31005D01*
X49505Y-31076D01*
X49500Y-31070D01*
X49429Y-31141D01*
X49429Y-31000D01*
X48989Y-30559D01*
X48876Y-30608D01*
X48773Y-30877D01*
X48781Y-31164D01*
X48876Y-31391D01*
X48989Y-31440D01*
X49429Y-31000D01*
X49429Y-31141D01*
X49059Y-31510D01*
X49108Y-31623D01*
X49158Y-31643D01*
X47707Y-33094D01*
X47683Y-33083D01*
X47318Y-33083D01*
X46981Y-33222D01*
X46723Y-33480D01*
X46583Y-33816D01*
X46583Y-34181D01*
X46722Y-34518D01*
X46980Y-34776D01*
X47316Y-34916D01*
X47681Y-34916D01*
X48018Y-34777D01*
X48276Y-34519D01*
X48416Y-34183D01*
X48416Y-33818D01*
X48405Y-33792D01*
X48662Y-33535D01*
X48662Y-33694D01*
X48662Y-34481D01*
X48730Y-34644D01*
X48854Y-34769D01*
X49017Y-34837D01*
X49194Y-34837D01*
X49981Y-34837D01*
X50144Y-34769D01*
X50269Y-34645D01*
X50337Y-34482D01*
X50337Y-34305D01*
X50337Y-33518D01*
X50269Y-33355D01*
X50145Y-33230D01*
X49982Y-33162D01*
X49805Y-33162D01*
X49035Y-33162D01*
X50710Y-31487D01*
X50722Y-31518D01*
X50980Y-31776D01*
X51316Y-31916D01*
X51681Y-31916D01*
X52018Y-31777D01*
X52276Y-31519D01*
X52416Y-31183D01*
X52416Y-30818D01*
X52277Y-30481D01*
X52019Y-30223D01*
X51987Y-30210D01*
X53251Y-28946D01*
X53287Y-29000D01*
X53146Y-29211D01*
X53088Y-29500D01*
X53146Y-29788D01*
X53287Y-30000D01*
X53146Y-30211D01*
X53088Y-30500D01*
X53146Y-30788D01*
X53287Y-31000D01*
X53146Y-31211D01*
X53088Y-31500D01*
X53146Y-31788D01*
X53287Y-32000D01*
X53146Y-32211D01*
X53088Y-32500D01*
X53146Y-32788D01*
X53309Y-33032D01*
X53554Y-33196D01*
X53842Y-33253D01*
X54157Y-33253D01*
X54445Y-33196D01*
X54690Y-33032D01*
X54853Y-32788D01*
X54911Y-32500D01*
X54853Y-32211D01*
X54712Y-32000D01*
X54853Y-31788D01*
X54911Y-31500D01*
X54853Y-31211D01*
X54712Y-31000D01*
X54853Y-30788D01*
X54911Y-30500D01*
X54853Y-30211D01*
X54712Y-30000D01*
X54853Y-29788D01*
X54911Y-29500D01*
X54853Y-29211D01*
X54712Y-29000D01*
X54853Y-28788D01*
X54911Y-28500D01*
X54853Y-28211D01*
X54824Y-28167D01*
X56169Y-26822D01*
X56287Y-27000D01*
X56146Y-27211D01*
X56088Y-27500D01*
X56146Y-27788D01*
X56309Y-28032D01*
X56446Y-28124D01*
X56428Y-28139D01*
X56323Y-28331D01*
X56316Y-28363D01*
X56365Y-28450D01*
X56950Y-28450D01*
X56950Y-28442D01*
X57050Y-28442D01*
X57050Y-28450D01*
X57057Y-28450D01*
X57057Y-28506D01*
X56704Y-28506D01*
X56515Y-28543D01*
X56506Y-28550D01*
X56365Y-28550D01*
X56316Y-28636D01*
X56323Y-28668D01*
X56328Y-28677D01*
X56043Y-28963D01*
X55936Y-29123D01*
X55898Y-29312D01*
X55898Y-31691D01*
X55936Y-31880D01*
X56043Y-32040D01*
X56106Y-32103D01*
X56106Y-32277D01*
X56106Y-32897D01*
X56173Y-33061D01*
X56298Y-33185D01*
X56461Y-33253D01*
X56637Y-33253D01*
X57537Y-33253D01*
X57701Y-33186D01*
X57825Y-33061D01*
X57877Y-32937D01*
X57922Y-32946D01*
X57960Y-32953D01*
X57960Y-32953D01*
X57960Y-32953D01*
X60539Y-32953D01*
X60728Y-32916D01*
X60888Y-32809D01*
X61162Y-32535D01*
X61173Y-32561D01*
X61187Y-32574D01*
X60277Y-33484D01*
X57137Y-33484D01*
X57107Y-33454D01*
X56879Y-33359D01*
X56633Y-33359D01*
X56406Y-33453D01*
X56232Y-33627D01*
X56137Y-33854D01*
X56137Y-34101D01*
X56231Y-34328D01*
X56405Y-34502D01*
X56632Y-34597D01*
X56878Y-34597D01*
X57106Y-34503D01*
X57137Y-34472D01*
X60481Y-34472D01*
X60670Y-34434D01*
X60830Y-34327D01*
X62349Y-32809D01*
X62386Y-32753D01*
X62537Y-32753D01*
X62701Y-32686D01*
X62825Y-32561D01*
X62893Y-32398D01*
X62893Y-32302D01*
X64701Y-34110D01*
X64701Y-34110D01*
X64861Y-34217D01*
X64861Y-34217D01*
X65050Y-34255D01*
X65050Y-34255D01*
X66351Y-34255D01*
X67098Y-35002D01*
X66928Y-35139D01*
X66823Y-35331D01*
X66816Y-35363D01*
X66865Y-35450D01*
X67450Y-35450D01*
X67450Y-35442D01*
X67538Y-35442D01*
X67557Y-35461D01*
X67557Y-35527D01*
X65405Y-35527D01*
X65411Y-35500D01*
X65353Y-35211D01*
X65190Y-34967D01*
X64945Y-34803D01*
X64657Y-34746D01*
X64342Y-34746D01*
X64054Y-34803D01*
X63809Y-34967D01*
X63646Y-35211D01*
X63588Y-35500D01*
X63594Y-35527D01*
X62683Y-35527D01*
X62683Y-35363D01*
X62676Y-35331D01*
X62571Y-35139D01*
X62400Y-35001D01*
X62190Y-34940D01*
X62050Y-34940D01*
X62050Y-35450D01*
X62634Y-35450D01*
X62683Y-35363D01*
X62683Y-35527D01*
X61950Y-35527D01*
X61950Y-35450D01*
X61950Y-34940D01*
X61810Y-34940D01*
X61599Y-35001D01*
X61428Y-35139D01*
X61323Y-35331D01*
X61316Y-35363D01*
X61365Y-35450D01*
X61950Y-35450D01*
X61950Y-35527D01*
X59905Y-35527D01*
X59911Y-35500D01*
X59853Y-35211D01*
X59690Y-34967D01*
X59445Y-34803D01*
X59157Y-34746D01*
X58842Y-34746D01*
X58554Y-34803D01*
X58309Y-34967D01*
X58146Y-35211D01*
X58088Y-35500D01*
X58094Y-35527D01*
X57683Y-35527D01*
X57683Y-35363D01*
X57676Y-35331D01*
X57571Y-35139D01*
X57400Y-35001D01*
X57190Y-34940D01*
X57050Y-34940D01*
X57050Y-35450D01*
X57634Y-35450D01*
X57683Y-35363D01*
X57683Y-35527D01*
X56950Y-35527D01*
X56950Y-35450D01*
X56950Y-34940D01*
X56810Y-34940D01*
X56599Y-35001D01*
X56428Y-35139D01*
X56323Y-35331D01*
X56316Y-35363D01*
X56365Y-35450D01*
X56950Y-35450D01*
X56950Y-35527D01*
X55478Y-35527D01*
X55289Y-35565D01*
X55129Y-35672D01*
X54748Y-36053D01*
X54712Y-36000D01*
X54853Y-35788D01*
X54911Y-35500D01*
X54853Y-35211D01*
X54690Y-34967D01*
X54445Y-34803D01*
X54157Y-34746D01*
X53842Y-34746D01*
X53554Y-34803D01*
X53309Y-34967D01*
X53146Y-35211D01*
X53088Y-35500D01*
X53146Y-35788D01*
X53173Y-35829D01*
X53031Y-35971D01*
X52924Y-36131D01*
X52887Y-36320D01*
X52887Y-37694D01*
X52924Y-37883D01*
X53031Y-38043D01*
X53167Y-38179D01*
X53146Y-38211D01*
X53088Y-38500D01*
X53146Y-38788D01*
X53171Y-38826D01*
X53032Y-38965D01*
X52925Y-39125D01*
X52887Y-39314D01*
X52887Y-41694D01*
X52925Y-41883D01*
X53032Y-42043D01*
X53789Y-42799D01*
X53949Y-42906D01*
X54138Y-42944D01*
X72509Y-42944D01*
X72698Y-42906D01*
X72858Y-42799D01*
X73349Y-42309D01*
X73386Y-42253D01*
X73537Y-42253D01*
X73701Y-42186D01*
X73825Y-42061D01*
X73893Y-41898D01*
X73893Y-41722D01*
X73893Y-41102D01*
X73826Y-40938D01*
X73782Y-40895D01*
X73853Y-40788D01*
X73911Y-40500D01*
X73853Y-40211D01*
X73712Y-40000D01*
X73853Y-39788D01*
X73911Y-39500D01*
X73853Y-39211D01*
X73712Y-39000D01*
X73853Y-38788D01*
X73911Y-38500D01*
X73853Y-38211D01*
X73712Y-38000D01*
X73853Y-37788D01*
X73911Y-37500D01*
X73853Y-37211D01*
X73712Y-37000D01*
X73853Y-36788D01*
X73911Y-36500D01*
X73853Y-36211D01*
X73690Y-35967D01*
X73553Y-35875D01*
X73571Y-35860D01*
X73676Y-35668D01*
X73683Y-35636D01*
X73683Y-35363D01*
X73676Y-35331D01*
X73571Y-35139D01*
X73400Y-35001D01*
X73190Y-34940D01*
X73050Y-34940D01*
X73050Y-35450D01*
X73634Y-35450D01*
X73683Y-35363D01*
X73683Y-35636D01*
X73634Y-35550D01*
X73050Y-35550D01*
X73050Y-35556D01*
X73000Y-35546D01*
X72945Y-35546D01*
X72942Y-35542D01*
X72942Y-35450D01*
X72950Y-35450D01*
X72950Y-34940D01*
X72883Y-34940D01*
X72883Y-33937D01*
X73959Y-32861D01*
X74066Y-32701D01*
X74103Y-32512D01*
X74103Y-31201D01*
X74188Y-31286D01*
X74348Y-31393D01*
X74537Y-31431D01*
X74934Y-31431D01*
X74934Y-31477D01*
X74867Y-31481D01*
X74727Y-31539D01*
X74702Y-31632D01*
X74934Y-31864D01*
X74934Y-32135D01*
X74929Y-32141D01*
X74929Y-32000D01*
X74632Y-31702D01*
X74539Y-31727D01*
X74470Y-31924D01*
X74481Y-32132D01*
X74539Y-32272D01*
X74632Y-32297D01*
X74929Y-32000D01*
X74929Y-32141D01*
X74702Y-32367D01*
X74727Y-32460D01*
X74924Y-32529D01*
X74934Y-32529D01*
X74934Y-33281D01*
X74857Y-33281D01*
X74593Y-33390D01*
X74391Y-33592D01*
X74281Y-33856D01*
X74281Y-34142D01*
X74390Y-34406D01*
X74592Y-34608D01*
X74856Y-34718D01*
X74934Y-34718D01*
X74934Y-35477D01*
X74867Y-35481D01*
X74727Y-35539D01*
X74702Y-35632D01*
X74934Y-35864D01*
X74934Y-36135D01*
X74929Y-36141D01*
X74929Y-36000D01*
X74632Y-35702D01*
X74539Y-35727D01*
X74470Y-35924D01*
X74481Y-36132D01*
X74539Y-36272D01*
X74632Y-36297D01*
X74929Y-36000D01*
X74929Y-36141D01*
X74702Y-36367D01*
X74727Y-36460D01*
X74924Y-36529D01*
X74934Y-36529D01*
X74934Y-37281D01*
X74857Y-37281D01*
X74593Y-37390D01*
X74391Y-37592D01*
X74281Y-37856D01*
X74281Y-38142D01*
X74390Y-38406D01*
X74592Y-38608D01*
X74856Y-38718D01*
X75142Y-38718D01*
X75406Y-38609D01*
X75608Y-38407D01*
X75718Y-38143D01*
X75718Y-37979D01*
X75777Y-37920D01*
X75777Y-37920D01*
X75777Y-37920D01*
X75884Y-37760D01*
X75884Y-37760D01*
X75914Y-37608D01*
X75922Y-37571D01*
X75922Y-37571D01*
X75922Y-37571D01*
X75922Y-30937D01*
X75922Y-26813D01*
X75884Y-26624D01*
X75777Y-26464D01*
X75529Y-26216D01*
X74798Y-25485D01*
X74924Y-25529D01*
X75132Y-25518D01*
X75272Y-25460D01*
X75297Y-25367D01*
X75000Y-25070D01*
X74994Y-25076D01*
X74923Y-25005D01*
X74929Y-25000D01*
X74923Y-24994D01*
X74994Y-24923D01*
X75000Y-24929D01*
X75005Y-24923D01*
X75076Y-24994D01*
X75070Y-25000D01*
X75367Y-25297D01*
X75460Y-25272D01*
X75529Y-25075D01*
X75518Y-24867D01*
X75460Y-24727D01*
X75367Y-24702D01*
X75383Y-24687D01*
X75703Y-24554D01*
X75950Y-24308D01*
X75950Y-41691D01*
M02*
