G04 (created by PCBNEW (2013-07-07 BZR 4022)-stable) date 17-11-2017 21:30:10*
%MOIN*%
G04 Gerber Fmt 3.4, Leading zero omitted, Abs format*
%FSLAX34Y34*%
G01*
G70*
G90*
G04 APERTURE LIST*
%ADD10C,0.00590551*%
%ADD11C,0.012*%
%ADD12C,0.015*%
%ADD13C,0.008*%
%ADD14C,0.01125*%
%ADD15C,0.00393701*%
%ADD16C,0.01*%
G04 APERTURE END LIST*
G54D10*
G54D11*
X52500Y-23000D02*
X52900Y-23000D01*
X52900Y-23000D02*
X52900Y-22600D01*
X52900Y-22600D02*
X56100Y-22600D01*
X56100Y-22600D02*
X56100Y-23400D01*
X56100Y-23400D02*
X52900Y-23400D01*
X52900Y-23400D02*
X52900Y-23000D01*
X52900Y-22800D02*
X53100Y-22600D01*
X56500Y-23000D02*
X56100Y-23000D01*
X73000Y-23000D02*
X72600Y-23000D01*
X72600Y-23000D02*
X72600Y-23400D01*
X72600Y-23400D02*
X69400Y-23400D01*
X69400Y-23400D02*
X69400Y-22600D01*
X69400Y-22600D02*
X72600Y-22600D01*
X72600Y-22600D02*
X72600Y-23000D01*
X72600Y-23200D02*
X72400Y-23400D01*
X69000Y-23000D02*
X69400Y-23000D01*
X67500Y-23000D02*
X67100Y-23000D01*
X67100Y-23000D02*
X67100Y-23400D01*
X67100Y-23400D02*
X63900Y-23400D01*
X63900Y-23400D02*
X63900Y-22600D01*
X63900Y-22600D02*
X67100Y-22600D01*
X67100Y-22600D02*
X67100Y-23000D01*
X67100Y-23200D02*
X66900Y-23400D01*
X63500Y-23000D02*
X63900Y-23000D01*
X62000Y-23000D02*
X61600Y-23000D01*
X61600Y-23000D02*
X61600Y-23400D01*
X61600Y-23400D02*
X58400Y-23400D01*
X58400Y-23400D02*
X58400Y-22600D01*
X58400Y-22600D02*
X61600Y-22600D01*
X61600Y-22600D02*
X61600Y-23000D01*
X61600Y-23200D02*
X61400Y-23400D01*
X58000Y-23000D02*
X58400Y-23000D01*
G54D12*
X55000Y-33500D02*
X55000Y-33500D01*
X55000Y-33500D02*
X55000Y-33000D01*
X55000Y-33000D02*
X56000Y-33000D01*
X56000Y-33000D02*
X56000Y-33500D01*
X54500Y-33500D02*
X54500Y-24500D01*
X54500Y-24500D02*
X56500Y-24500D01*
X56500Y-24500D02*
X56500Y-33500D01*
X56500Y-33500D02*
X54500Y-33500D01*
X59500Y-33000D02*
X59500Y-25000D01*
X61500Y-25000D02*
X61500Y-33000D01*
X61500Y-33000D02*
X59500Y-33000D01*
X60000Y-33000D02*
X60000Y-32500D01*
X60000Y-32500D02*
X61000Y-32500D01*
X61000Y-32500D02*
X61000Y-33000D01*
X59500Y-25000D02*
X61500Y-25000D01*
X54500Y-42500D02*
X54500Y-34500D01*
X56500Y-34500D02*
X56500Y-42500D01*
X56500Y-42500D02*
X54500Y-42500D01*
X55000Y-42500D02*
X55000Y-42000D01*
X55000Y-42000D02*
X56000Y-42000D01*
X56000Y-42000D02*
X56000Y-42500D01*
X54500Y-34500D02*
X56500Y-34500D01*
X65000Y-33000D02*
X65000Y-25000D01*
X67000Y-25000D02*
X67000Y-33000D01*
X67000Y-33000D02*
X65000Y-33000D01*
X65500Y-33000D02*
X65500Y-32500D01*
X65500Y-32500D02*
X66500Y-32500D01*
X66500Y-32500D02*
X66500Y-33000D01*
X65000Y-25000D02*
X67000Y-25000D01*
X70500Y-42500D02*
X70500Y-34500D01*
X72500Y-34500D02*
X72500Y-42500D01*
X72500Y-42500D02*
X70500Y-42500D01*
X71000Y-42500D02*
X71000Y-42000D01*
X71000Y-42000D02*
X72000Y-42000D01*
X72000Y-42000D02*
X72000Y-42500D01*
X70500Y-34500D02*
X72500Y-34500D01*
X65000Y-42500D02*
X65000Y-34500D01*
X67000Y-34500D02*
X67000Y-42500D01*
X67000Y-42500D02*
X65000Y-42500D01*
X65500Y-42500D02*
X65500Y-42000D01*
X65500Y-42000D02*
X66500Y-42000D01*
X66500Y-42000D02*
X66500Y-42500D01*
X65000Y-34500D02*
X67000Y-34500D01*
X59500Y-42500D02*
X59500Y-34500D01*
X61500Y-34500D02*
X61500Y-42500D01*
X61500Y-42500D02*
X59500Y-42500D01*
X60000Y-42500D02*
X60000Y-42000D01*
X60000Y-42000D02*
X61000Y-42000D01*
X61000Y-42000D02*
X61000Y-42500D01*
X59500Y-34500D02*
X61500Y-34500D01*
X70500Y-33000D02*
X70500Y-25000D01*
X72500Y-25000D02*
X72500Y-33000D01*
X72500Y-33000D02*
X70500Y-33000D01*
X71000Y-33000D02*
X71000Y-32500D01*
X71000Y-32500D02*
X72000Y-32500D01*
X72000Y-32500D02*
X72000Y-33000D01*
X70500Y-25000D02*
X72500Y-25000D01*
G54D11*
X43500Y-29000D02*
X43500Y-26000D01*
X43500Y-26000D02*
X44500Y-26000D01*
X44500Y-26000D02*
X44500Y-29000D01*
X44500Y-29000D02*
X43500Y-29000D01*
X43500Y-26250D02*
X44500Y-26250D01*
X44500Y-26500D02*
X43500Y-26500D01*
X44000Y-29000D02*
X44000Y-29500D01*
X44000Y-26000D02*
X44000Y-25500D01*
X43500Y-34500D02*
X43500Y-31500D01*
X43500Y-31500D02*
X44500Y-31500D01*
X44500Y-31500D02*
X44500Y-34500D01*
X44500Y-34500D02*
X43500Y-34500D01*
X43500Y-31750D02*
X44500Y-31750D01*
X44500Y-32000D02*
X43500Y-32000D01*
X44000Y-34500D02*
X44000Y-35000D01*
X44000Y-31500D02*
X44000Y-31000D01*
X43500Y-40000D02*
X43500Y-37000D01*
X43500Y-37000D02*
X44500Y-37000D01*
X44500Y-37000D02*
X44500Y-40000D01*
X44500Y-40000D02*
X43500Y-40000D01*
X43500Y-37250D02*
X44500Y-37250D01*
X44500Y-37500D02*
X43500Y-37500D01*
X44000Y-40000D02*
X44000Y-40500D01*
X44000Y-37000D02*
X44000Y-36500D01*
X74600Y-34400D02*
X74600Y-31600D01*
X74600Y-31600D02*
X75400Y-31600D01*
X75400Y-31600D02*
X75400Y-34400D01*
X75400Y-34400D02*
X74600Y-34400D01*
X74800Y-34400D02*
X74600Y-34200D01*
X74600Y-27400D02*
X74600Y-24600D01*
X74600Y-24600D02*
X75400Y-24600D01*
X75400Y-24600D02*
X75400Y-27400D01*
X75400Y-27400D02*
X74600Y-27400D01*
X74800Y-27400D02*
X74600Y-27200D01*
X74600Y-38400D02*
X74600Y-35600D01*
X74600Y-35600D02*
X75400Y-35600D01*
X75400Y-35600D02*
X75400Y-38400D01*
X75400Y-38400D02*
X74600Y-38400D01*
X74800Y-38400D02*
X74600Y-38200D01*
X74600Y-30900D02*
X74600Y-28100D01*
X74600Y-28100D02*
X75400Y-28100D01*
X75400Y-28100D02*
X75400Y-30900D01*
X75400Y-30900D02*
X74600Y-30900D01*
X74800Y-30900D02*
X74600Y-30700D01*
G54D12*
X45000Y-30500D02*
X45000Y-34750D01*
X45000Y-34750D02*
X48000Y-34750D01*
X48000Y-34750D02*
X48000Y-30500D01*
X48000Y-30500D02*
X45000Y-30500D01*
X49000Y-30500D02*
X49000Y-34750D01*
X49000Y-34750D02*
X52000Y-34750D01*
X52000Y-34750D02*
X52000Y-30500D01*
X52000Y-30500D02*
X49000Y-30500D01*
X45000Y-36000D02*
X45000Y-40250D01*
X45000Y-40250D02*
X48000Y-40250D01*
X48000Y-40250D02*
X48000Y-36000D01*
X48000Y-36000D02*
X45000Y-36000D01*
X49000Y-36000D02*
X49000Y-40250D01*
X49000Y-40250D02*
X52000Y-40250D01*
X52000Y-40250D02*
X52000Y-36000D01*
X52000Y-36000D02*
X49000Y-36000D01*
X46500Y-29500D02*
X46500Y-22500D01*
X46500Y-22500D02*
X51500Y-22500D01*
X51500Y-22500D02*
X51500Y-29500D01*
X51500Y-29500D02*
X46500Y-29500D01*
X69900Y-34000D02*
G75*
G03X69900Y-34000I-900J0D01*
G74*
G01*
X49900Y-26000D02*
G75*
G03X49900Y-26000I-900J0D01*
G74*
G01*
X75900Y-42500D02*
G75*
G03X75900Y-42500I-900J0D01*
G74*
G01*
X45400Y-42500D02*
G75*
G03X45400Y-42500I-900J0D01*
G74*
G01*
X75900Y-23500D02*
G75*
G03X75900Y-23500I-900J0D01*
G74*
G01*
X52400Y-42000D02*
G75*
G03X52400Y-42000I-900J0D01*
G74*
G01*
X45400Y-23500D02*
G75*
G03X45400Y-23500I-900J0D01*
G74*
G01*
G54D13*
X54416Y-23222D02*
X54250Y-22960D01*
X54130Y-23222D02*
X54130Y-22672D01*
X54321Y-22672D01*
X54369Y-22698D01*
X54392Y-22725D01*
X54416Y-22777D01*
X54416Y-22855D01*
X54392Y-22908D01*
X54369Y-22934D01*
X54321Y-22960D01*
X54130Y-22960D01*
X54892Y-23222D02*
X54607Y-23222D01*
X54750Y-23222D02*
X54750Y-22672D01*
X54702Y-22751D01*
X54654Y-22803D01*
X54607Y-22829D01*
X70916Y-23222D02*
X70750Y-22960D01*
X70630Y-23222D02*
X70630Y-22672D01*
X70821Y-22672D01*
X70869Y-22698D01*
X70892Y-22725D01*
X70916Y-22777D01*
X70916Y-22855D01*
X70892Y-22908D01*
X70869Y-22934D01*
X70821Y-22960D01*
X70630Y-22960D01*
X71107Y-22725D02*
X71130Y-22698D01*
X71178Y-22672D01*
X71297Y-22672D01*
X71345Y-22698D01*
X71369Y-22725D01*
X71392Y-22777D01*
X71392Y-22829D01*
X71369Y-22908D01*
X71083Y-23222D01*
X71392Y-23222D01*
X65416Y-23222D02*
X65250Y-22960D01*
X65130Y-23222D02*
X65130Y-22672D01*
X65321Y-22672D01*
X65369Y-22698D01*
X65392Y-22725D01*
X65416Y-22777D01*
X65416Y-22855D01*
X65392Y-22908D01*
X65369Y-22934D01*
X65321Y-22960D01*
X65130Y-22960D01*
X65583Y-22672D02*
X65892Y-22672D01*
X65726Y-22882D01*
X65797Y-22882D01*
X65845Y-22908D01*
X65869Y-22934D01*
X65892Y-22986D01*
X65892Y-23117D01*
X65869Y-23170D01*
X65845Y-23196D01*
X65797Y-23222D01*
X65654Y-23222D01*
X65607Y-23196D01*
X65583Y-23170D01*
X59916Y-23222D02*
X59750Y-22960D01*
X59630Y-23222D02*
X59630Y-22672D01*
X59821Y-22672D01*
X59869Y-22698D01*
X59892Y-22725D01*
X59916Y-22777D01*
X59916Y-22855D01*
X59892Y-22908D01*
X59869Y-22934D01*
X59821Y-22960D01*
X59630Y-22960D01*
X60345Y-22855D02*
X60345Y-23222D01*
X60226Y-22646D02*
X60107Y-23039D01*
X60416Y-23039D01*
G54D14*
X54642Y-31842D02*
X55128Y-31842D01*
X55185Y-31821D01*
X55214Y-31800D01*
X55242Y-31757D01*
X55242Y-31671D01*
X55214Y-31628D01*
X55185Y-31607D01*
X55128Y-31585D01*
X54642Y-31585D01*
X54642Y-31414D02*
X54642Y-31135D01*
X54871Y-31285D01*
X54871Y-31221D01*
X54900Y-31178D01*
X54928Y-31157D01*
X54985Y-31135D01*
X55128Y-31135D01*
X55185Y-31157D01*
X55214Y-31178D01*
X55242Y-31221D01*
X55242Y-31350D01*
X55214Y-31392D01*
X55185Y-31414D01*
G54D11*
G54D14*
X55057Y-28685D02*
X55035Y-28714D01*
X54971Y-28742D01*
X54928Y-28742D01*
X54864Y-28714D01*
X54821Y-28657D01*
X54800Y-28600D01*
X54778Y-28485D01*
X54778Y-28400D01*
X54800Y-28285D01*
X54821Y-28228D01*
X54864Y-28171D01*
X54928Y-28142D01*
X54971Y-28142D01*
X55035Y-28171D01*
X55057Y-28200D01*
X55250Y-28742D02*
X55250Y-28142D01*
X55357Y-28142D01*
X55421Y-28171D01*
X55464Y-28228D01*
X55485Y-28285D01*
X55507Y-28400D01*
X55507Y-28485D01*
X55485Y-28600D01*
X55464Y-28657D01*
X55421Y-28714D01*
X55357Y-28742D01*
X55250Y-28742D01*
X55892Y-28342D02*
X55892Y-28742D01*
X55785Y-28114D02*
X55678Y-28542D01*
X55957Y-28542D01*
X56342Y-28142D02*
X56128Y-28142D01*
X56107Y-28428D01*
X56128Y-28400D01*
X56171Y-28371D01*
X56278Y-28371D01*
X56321Y-28400D01*
X56342Y-28428D01*
X56364Y-28485D01*
X56364Y-28628D01*
X56342Y-28685D01*
X56321Y-28714D01*
X56278Y-28742D01*
X56171Y-28742D01*
X56128Y-28714D01*
X56107Y-28685D01*
X56792Y-28742D02*
X56535Y-28742D01*
X56664Y-28742D02*
X56664Y-28142D01*
X56621Y-28228D01*
X56578Y-28285D01*
X56535Y-28314D01*
X57221Y-28742D02*
X56964Y-28742D01*
X57092Y-28742D02*
X57092Y-28142D01*
X57050Y-28228D01*
X57007Y-28285D01*
X56964Y-28314D01*
G54D11*
G54D14*
X59642Y-31342D02*
X60128Y-31342D01*
X60185Y-31321D01*
X60214Y-31300D01*
X60242Y-31257D01*
X60242Y-31171D01*
X60214Y-31128D01*
X60185Y-31107D01*
X60128Y-31085D01*
X59642Y-31085D01*
X59642Y-30914D02*
X59642Y-30614D01*
X60242Y-30807D01*
G54D11*
G54D14*
X60842Y-29057D02*
X61242Y-29057D01*
X60614Y-29164D02*
X61042Y-29271D01*
X61042Y-28992D01*
X60642Y-28735D02*
X60642Y-28692D01*
X60671Y-28650D01*
X60700Y-28628D01*
X60757Y-28607D01*
X60871Y-28585D01*
X61014Y-28585D01*
X61128Y-28607D01*
X61185Y-28628D01*
X61214Y-28650D01*
X61242Y-28692D01*
X61242Y-28735D01*
X61214Y-28778D01*
X61185Y-28800D01*
X61128Y-28821D01*
X61014Y-28842D01*
X60871Y-28842D01*
X60757Y-28821D01*
X60700Y-28800D01*
X60671Y-28778D01*
X60642Y-28735D01*
X60900Y-28328D02*
X60871Y-28371D01*
X60842Y-28392D01*
X60785Y-28414D01*
X60757Y-28414D01*
X60700Y-28392D01*
X60671Y-28371D01*
X60642Y-28328D01*
X60642Y-28242D01*
X60671Y-28200D01*
X60700Y-28178D01*
X60757Y-28157D01*
X60785Y-28157D01*
X60842Y-28178D01*
X60871Y-28200D01*
X60900Y-28242D01*
X60900Y-28328D01*
X60928Y-28371D01*
X60957Y-28392D01*
X61014Y-28414D01*
X61128Y-28414D01*
X61185Y-28392D01*
X61214Y-28371D01*
X61242Y-28328D01*
X61242Y-28242D01*
X61214Y-28200D01*
X61185Y-28178D01*
X61128Y-28157D01*
X61014Y-28157D01*
X60957Y-28178D01*
X60928Y-28200D01*
X60900Y-28242D01*
X61242Y-27728D02*
X61242Y-27985D01*
X61242Y-27857D02*
X60642Y-27857D01*
X60728Y-27900D01*
X60785Y-27942D01*
X60814Y-27985D01*
G54D11*
G54D14*
X54642Y-40842D02*
X55128Y-40842D01*
X55185Y-40821D01*
X55214Y-40800D01*
X55242Y-40757D01*
X55242Y-40671D01*
X55214Y-40628D01*
X55185Y-40607D01*
X55128Y-40585D01*
X54642Y-40585D01*
X54642Y-40157D02*
X54642Y-40371D01*
X54928Y-40392D01*
X54900Y-40371D01*
X54871Y-40328D01*
X54871Y-40221D01*
X54900Y-40178D01*
X54928Y-40157D01*
X54985Y-40135D01*
X55128Y-40135D01*
X55185Y-40157D01*
X55214Y-40178D01*
X55242Y-40221D01*
X55242Y-40328D01*
X55214Y-40371D01*
X55185Y-40392D01*
G54D11*
G54D14*
X55842Y-38557D02*
X56242Y-38557D01*
X55614Y-38664D02*
X56042Y-38771D01*
X56042Y-38492D01*
X55642Y-38235D02*
X55642Y-38192D01*
X55671Y-38150D01*
X55700Y-38128D01*
X55757Y-38107D01*
X55871Y-38085D01*
X56014Y-38085D01*
X56128Y-38107D01*
X56185Y-38128D01*
X56214Y-38150D01*
X56242Y-38192D01*
X56242Y-38235D01*
X56214Y-38278D01*
X56185Y-38300D01*
X56128Y-38321D01*
X56014Y-38342D01*
X55871Y-38342D01*
X55757Y-38321D01*
X55700Y-38300D01*
X55671Y-38278D01*
X55642Y-38235D01*
X55900Y-37828D02*
X55871Y-37871D01*
X55842Y-37892D01*
X55785Y-37914D01*
X55757Y-37914D01*
X55700Y-37892D01*
X55671Y-37871D01*
X55642Y-37828D01*
X55642Y-37742D01*
X55671Y-37700D01*
X55700Y-37678D01*
X55757Y-37657D01*
X55785Y-37657D01*
X55842Y-37678D01*
X55871Y-37700D01*
X55900Y-37742D01*
X55900Y-37828D01*
X55928Y-37871D01*
X55957Y-37892D01*
X56014Y-37914D01*
X56128Y-37914D01*
X56185Y-37892D01*
X56214Y-37871D01*
X56242Y-37828D01*
X56242Y-37742D01*
X56214Y-37700D01*
X56185Y-37678D01*
X56128Y-37657D01*
X56014Y-37657D01*
X55957Y-37678D01*
X55928Y-37700D01*
X55900Y-37742D01*
X56242Y-37228D02*
X56242Y-37485D01*
X56242Y-37357D02*
X55642Y-37357D01*
X55728Y-37400D01*
X55785Y-37442D01*
X55814Y-37485D01*
G54D11*
G54D14*
X65142Y-31342D02*
X65628Y-31342D01*
X65685Y-31321D01*
X65714Y-31300D01*
X65742Y-31257D01*
X65742Y-31171D01*
X65714Y-31128D01*
X65685Y-31107D01*
X65628Y-31085D01*
X65142Y-31085D01*
X65342Y-30678D02*
X65742Y-30678D01*
X65114Y-30785D02*
X65542Y-30892D01*
X65542Y-30614D01*
G54D11*
G54D14*
X66342Y-29057D02*
X66742Y-29057D01*
X66114Y-29164D02*
X66542Y-29271D01*
X66542Y-28992D01*
X66142Y-28735D02*
X66142Y-28692D01*
X66171Y-28650D01*
X66200Y-28628D01*
X66257Y-28607D01*
X66371Y-28585D01*
X66514Y-28585D01*
X66628Y-28607D01*
X66685Y-28628D01*
X66714Y-28650D01*
X66742Y-28692D01*
X66742Y-28735D01*
X66714Y-28778D01*
X66685Y-28800D01*
X66628Y-28821D01*
X66514Y-28842D01*
X66371Y-28842D01*
X66257Y-28821D01*
X66200Y-28800D01*
X66171Y-28778D01*
X66142Y-28735D01*
X66142Y-28200D02*
X66142Y-28285D01*
X66171Y-28328D01*
X66200Y-28350D01*
X66285Y-28392D01*
X66400Y-28414D01*
X66628Y-28414D01*
X66685Y-28392D01*
X66714Y-28371D01*
X66742Y-28328D01*
X66742Y-28242D01*
X66714Y-28200D01*
X66685Y-28178D01*
X66628Y-28157D01*
X66485Y-28157D01*
X66428Y-28178D01*
X66400Y-28200D01*
X66371Y-28242D01*
X66371Y-28328D01*
X66400Y-28371D01*
X66428Y-28392D01*
X66485Y-28414D01*
X66742Y-27942D02*
X66742Y-27857D01*
X66714Y-27814D01*
X66685Y-27792D01*
X66600Y-27750D01*
X66485Y-27728D01*
X66257Y-27728D01*
X66200Y-27750D01*
X66171Y-27771D01*
X66142Y-27814D01*
X66142Y-27900D01*
X66171Y-27942D01*
X66200Y-27964D01*
X66257Y-27985D01*
X66400Y-27985D01*
X66457Y-27964D01*
X66485Y-27942D01*
X66514Y-27900D01*
X66514Y-27814D01*
X66485Y-27771D01*
X66457Y-27750D01*
X66400Y-27728D01*
G54D11*
G54D14*
X70642Y-40842D02*
X71128Y-40842D01*
X71185Y-40821D01*
X71214Y-40800D01*
X71242Y-40757D01*
X71242Y-40671D01*
X71214Y-40628D01*
X71185Y-40607D01*
X71128Y-40585D01*
X70642Y-40585D01*
X70642Y-40178D02*
X70642Y-40264D01*
X70671Y-40307D01*
X70700Y-40328D01*
X70785Y-40371D01*
X70900Y-40392D01*
X71128Y-40392D01*
X71185Y-40371D01*
X71214Y-40350D01*
X71242Y-40307D01*
X71242Y-40221D01*
X71214Y-40178D01*
X71185Y-40157D01*
X71128Y-40135D01*
X70985Y-40135D01*
X70928Y-40157D01*
X70900Y-40178D01*
X70871Y-40221D01*
X70871Y-40307D01*
X70900Y-40350D01*
X70928Y-40371D01*
X70985Y-40392D01*
G54D11*
G54D14*
X71842Y-38557D02*
X72242Y-38557D01*
X71614Y-38664D02*
X72042Y-38771D01*
X72042Y-38492D01*
X71642Y-38235D02*
X71642Y-38192D01*
X71671Y-38150D01*
X71700Y-38128D01*
X71757Y-38107D01*
X71871Y-38085D01*
X72014Y-38085D01*
X72128Y-38107D01*
X72185Y-38128D01*
X72214Y-38150D01*
X72242Y-38192D01*
X72242Y-38235D01*
X72214Y-38278D01*
X72185Y-38300D01*
X72128Y-38321D01*
X72014Y-38342D01*
X71871Y-38342D01*
X71757Y-38321D01*
X71700Y-38300D01*
X71671Y-38278D01*
X71642Y-38235D01*
X71642Y-37935D02*
X71642Y-37635D01*
X72242Y-37828D01*
X72242Y-37228D02*
X72242Y-37485D01*
X72242Y-37357D02*
X71642Y-37357D01*
X71728Y-37400D01*
X71785Y-37442D01*
X71814Y-37485D01*
G54D11*
G54D14*
X65142Y-40842D02*
X65628Y-40842D01*
X65685Y-40821D01*
X65714Y-40800D01*
X65742Y-40757D01*
X65742Y-40671D01*
X65714Y-40628D01*
X65685Y-40607D01*
X65628Y-40585D01*
X65142Y-40585D01*
X65742Y-40135D02*
X65742Y-40392D01*
X65742Y-40264D02*
X65142Y-40264D01*
X65228Y-40307D01*
X65285Y-40350D01*
X65314Y-40392D01*
G54D11*
G54D14*
X66342Y-38557D02*
X66742Y-38557D01*
X66114Y-38664D02*
X66542Y-38771D01*
X66542Y-38492D01*
X66142Y-38235D02*
X66142Y-38192D01*
X66171Y-38150D01*
X66200Y-38128D01*
X66257Y-38107D01*
X66371Y-38085D01*
X66514Y-38085D01*
X66628Y-38107D01*
X66685Y-38128D01*
X66714Y-38150D01*
X66742Y-38192D01*
X66742Y-38235D01*
X66714Y-38278D01*
X66685Y-38300D01*
X66628Y-38321D01*
X66514Y-38342D01*
X66371Y-38342D01*
X66257Y-38321D01*
X66200Y-38300D01*
X66171Y-38278D01*
X66142Y-38235D01*
X66400Y-37828D02*
X66371Y-37871D01*
X66342Y-37892D01*
X66285Y-37914D01*
X66257Y-37914D01*
X66200Y-37892D01*
X66171Y-37871D01*
X66142Y-37828D01*
X66142Y-37742D01*
X66171Y-37700D01*
X66200Y-37678D01*
X66257Y-37657D01*
X66285Y-37657D01*
X66342Y-37678D01*
X66371Y-37700D01*
X66400Y-37742D01*
X66400Y-37828D01*
X66428Y-37871D01*
X66457Y-37892D01*
X66514Y-37914D01*
X66628Y-37914D01*
X66685Y-37892D01*
X66714Y-37871D01*
X66742Y-37828D01*
X66742Y-37742D01*
X66714Y-37700D01*
X66685Y-37678D01*
X66628Y-37657D01*
X66514Y-37657D01*
X66457Y-37678D01*
X66428Y-37700D01*
X66400Y-37742D01*
X66742Y-37228D02*
X66742Y-37485D01*
X66742Y-37357D02*
X66142Y-37357D01*
X66228Y-37400D01*
X66285Y-37442D01*
X66314Y-37485D01*
G54D11*
G54D14*
X59642Y-40842D02*
X60128Y-40842D01*
X60185Y-40821D01*
X60214Y-40800D01*
X60242Y-40757D01*
X60242Y-40671D01*
X60214Y-40628D01*
X60185Y-40607D01*
X60128Y-40585D01*
X59642Y-40585D01*
X59900Y-40307D02*
X59871Y-40350D01*
X59842Y-40371D01*
X59785Y-40392D01*
X59757Y-40392D01*
X59700Y-40371D01*
X59671Y-40350D01*
X59642Y-40307D01*
X59642Y-40221D01*
X59671Y-40178D01*
X59700Y-40157D01*
X59757Y-40135D01*
X59785Y-40135D01*
X59842Y-40157D01*
X59871Y-40178D01*
X59900Y-40221D01*
X59900Y-40307D01*
X59928Y-40350D01*
X59957Y-40371D01*
X60014Y-40392D01*
X60128Y-40392D01*
X60185Y-40371D01*
X60214Y-40350D01*
X60242Y-40307D01*
X60242Y-40221D01*
X60214Y-40178D01*
X60185Y-40157D01*
X60128Y-40135D01*
X60014Y-40135D01*
X59957Y-40157D01*
X59928Y-40178D01*
X59900Y-40221D01*
G54D11*
G54D14*
X60842Y-38557D02*
X61242Y-38557D01*
X60614Y-38664D02*
X61042Y-38771D01*
X61042Y-38492D01*
X60642Y-38235D02*
X60642Y-38192D01*
X60671Y-38150D01*
X60700Y-38128D01*
X60757Y-38107D01*
X60871Y-38085D01*
X61014Y-38085D01*
X61128Y-38107D01*
X61185Y-38128D01*
X61214Y-38150D01*
X61242Y-38192D01*
X61242Y-38235D01*
X61214Y-38278D01*
X61185Y-38300D01*
X61128Y-38321D01*
X61014Y-38342D01*
X60871Y-38342D01*
X60757Y-38321D01*
X60700Y-38300D01*
X60671Y-38278D01*
X60642Y-38235D01*
X60900Y-37828D02*
X60871Y-37871D01*
X60842Y-37892D01*
X60785Y-37914D01*
X60757Y-37914D01*
X60700Y-37892D01*
X60671Y-37871D01*
X60642Y-37828D01*
X60642Y-37742D01*
X60671Y-37700D01*
X60700Y-37678D01*
X60757Y-37657D01*
X60785Y-37657D01*
X60842Y-37678D01*
X60871Y-37700D01*
X60900Y-37742D01*
X60900Y-37828D01*
X60928Y-37871D01*
X60957Y-37892D01*
X61014Y-37914D01*
X61128Y-37914D01*
X61185Y-37892D01*
X61214Y-37871D01*
X61242Y-37828D01*
X61242Y-37742D01*
X61214Y-37700D01*
X61185Y-37678D01*
X61128Y-37657D01*
X61014Y-37657D01*
X60957Y-37678D01*
X60928Y-37700D01*
X60900Y-37742D01*
X61242Y-37228D02*
X61242Y-37485D01*
X61242Y-37357D02*
X60642Y-37357D01*
X60728Y-37400D01*
X60785Y-37442D01*
X60814Y-37485D01*
G54D11*
G54D14*
X70642Y-31342D02*
X71128Y-31342D01*
X71185Y-31321D01*
X71214Y-31300D01*
X71242Y-31257D01*
X71242Y-31171D01*
X71214Y-31128D01*
X71185Y-31107D01*
X71128Y-31085D01*
X70642Y-31085D01*
X70700Y-30892D02*
X70671Y-30871D01*
X70642Y-30828D01*
X70642Y-30721D01*
X70671Y-30678D01*
X70700Y-30657D01*
X70757Y-30635D01*
X70814Y-30635D01*
X70900Y-30657D01*
X71242Y-30914D01*
X71242Y-30635D01*
G54D11*
G54D14*
X71228Y-28342D02*
X71228Y-28742D01*
X71121Y-28114D02*
X71014Y-28542D01*
X71292Y-28542D01*
X71550Y-28142D02*
X71592Y-28142D01*
X71635Y-28171D01*
X71657Y-28200D01*
X71678Y-28257D01*
X71700Y-28371D01*
X71700Y-28514D01*
X71678Y-28628D01*
X71657Y-28685D01*
X71635Y-28714D01*
X71592Y-28742D01*
X71550Y-28742D01*
X71507Y-28714D01*
X71485Y-28685D01*
X71464Y-28628D01*
X71442Y-28514D01*
X71442Y-28371D01*
X71464Y-28257D01*
X71485Y-28200D01*
X71507Y-28171D01*
X71550Y-28142D01*
X72128Y-28742D02*
X71871Y-28742D01*
X72000Y-28742D02*
X72000Y-28142D01*
X71957Y-28228D01*
X71914Y-28285D01*
X71871Y-28314D01*
X72407Y-28142D02*
X72450Y-28142D01*
X72492Y-28171D01*
X72514Y-28200D01*
X72535Y-28257D01*
X72557Y-28371D01*
X72557Y-28514D01*
X72535Y-28628D01*
X72514Y-28685D01*
X72492Y-28714D01*
X72450Y-28742D01*
X72407Y-28742D01*
X72364Y-28714D01*
X72342Y-28685D01*
X72321Y-28628D01*
X72300Y-28514D01*
X72300Y-28371D01*
X72321Y-28257D01*
X72342Y-28200D01*
X72364Y-28171D01*
X72407Y-28142D01*
X72942Y-28142D02*
X72857Y-28142D01*
X72814Y-28171D01*
X72792Y-28200D01*
X72750Y-28285D01*
X72728Y-28400D01*
X72728Y-28628D01*
X72750Y-28685D01*
X72771Y-28714D01*
X72814Y-28742D01*
X72900Y-28742D01*
X72942Y-28714D01*
X72964Y-28685D01*
X72985Y-28628D01*
X72985Y-28485D01*
X72964Y-28428D01*
X72942Y-28400D01*
X72900Y-28371D01*
X72814Y-28371D01*
X72771Y-28400D01*
X72750Y-28428D01*
X72728Y-28485D01*
G54D11*
G54D13*
X44202Y-27795D02*
X43702Y-27795D01*
X43702Y-27699D01*
X43726Y-27642D01*
X43773Y-27604D01*
X43821Y-27585D01*
X43916Y-27566D01*
X43988Y-27566D01*
X44083Y-27585D01*
X44130Y-27604D01*
X44178Y-27642D01*
X44202Y-27699D01*
X44202Y-27795D01*
X44202Y-27185D02*
X44202Y-27414D01*
X44202Y-27299D02*
X43702Y-27299D01*
X43773Y-27338D01*
X43821Y-27376D01*
X43845Y-27414D01*
X44202Y-33295D02*
X43702Y-33295D01*
X43702Y-33199D01*
X43726Y-33142D01*
X43773Y-33104D01*
X43821Y-33085D01*
X43916Y-33066D01*
X43988Y-33066D01*
X44083Y-33085D01*
X44130Y-33104D01*
X44178Y-33142D01*
X44202Y-33199D01*
X44202Y-33295D01*
X43750Y-32914D02*
X43726Y-32895D01*
X43702Y-32857D01*
X43702Y-32761D01*
X43726Y-32723D01*
X43750Y-32704D01*
X43797Y-32685D01*
X43845Y-32685D01*
X43916Y-32704D01*
X44202Y-32933D01*
X44202Y-32685D01*
X44202Y-38795D02*
X43702Y-38795D01*
X43702Y-38699D01*
X43726Y-38642D01*
X43773Y-38604D01*
X43821Y-38585D01*
X43916Y-38566D01*
X43988Y-38566D01*
X44083Y-38585D01*
X44130Y-38604D01*
X44178Y-38642D01*
X44202Y-38699D01*
X44202Y-38795D01*
X43702Y-38433D02*
X43702Y-38185D01*
X43892Y-38319D01*
X43892Y-38261D01*
X43916Y-38223D01*
X43940Y-38204D01*
X43988Y-38185D01*
X44107Y-38185D01*
X44154Y-38204D01*
X44178Y-38223D01*
X44202Y-38261D01*
X44202Y-38376D01*
X44178Y-38414D01*
X44154Y-38433D01*
X75123Y-33066D02*
X75142Y-33085D01*
X75161Y-33142D01*
X75161Y-33180D01*
X75142Y-33238D01*
X75104Y-33276D01*
X75066Y-33295D01*
X74990Y-33314D01*
X74933Y-33314D01*
X74857Y-33295D01*
X74819Y-33276D01*
X74780Y-33238D01*
X74761Y-33180D01*
X74761Y-33142D01*
X74780Y-33085D01*
X74800Y-33066D01*
X74895Y-32723D02*
X75161Y-32723D01*
X74742Y-32819D02*
X75028Y-32914D01*
X75028Y-32666D01*
X75123Y-26066D02*
X75142Y-26085D01*
X75161Y-26142D01*
X75161Y-26180D01*
X75142Y-26238D01*
X75104Y-26276D01*
X75066Y-26295D01*
X74990Y-26314D01*
X74933Y-26314D01*
X74857Y-26295D01*
X74819Y-26276D01*
X74780Y-26238D01*
X74761Y-26180D01*
X74761Y-26142D01*
X74780Y-26085D01*
X74800Y-26066D01*
X74761Y-25933D02*
X74761Y-25685D01*
X74914Y-25819D01*
X74914Y-25761D01*
X74933Y-25723D01*
X74952Y-25704D01*
X74990Y-25685D01*
X75085Y-25685D01*
X75123Y-25704D01*
X75142Y-25723D01*
X75161Y-25761D01*
X75161Y-25876D01*
X75142Y-25914D01*
X75123Y-25933D01*
X75123Y-37066D02*
X75142Y-37085D01*
X75161Y-37142D01*
X75161Y-37180D01*
X75142Y-37238D01*
X75104Y-37276D01*
X75066Y-37295D01*
X74990Y-37314D01*
X74933Y-37314D01*
X74857Y-37295D01*
X74819Y-37276D01*
X74780Y-37238D01*
X74761Y-37180D01*
X74761Y-37142D01*
X74780Y-37085D01*
X74800Y-37066D01*
X74800Y-36914D02*
X74780Y-36895D01*
X74761Y-36857D01*
X74761Y-36761D01*
X74780Y-36723D01*
X74800Y-36704D01*
X74838Y-36685D01*
X74876Y-36685D01*
X74933Y-36704D01*
X75161Y-36933D01*
X75161Y-36685D01*
X75123Y-29566D02*
X75142Y-29585D01*
X75161Y-29642D01*
X75161Y-29680D01*
X75142Y-29738D01*
X75104Y-29776D01*
X75066Y-29795D01*
X74990Y-29814D01*
X74933Y-29814D01*
X74857Y-29795D01*
X74819Y-29776D01*
X74780Y-29738D01*
X74761Y-29680D01*
X74761Y-29642D01*
X74780Y-29585D01*
X74800Y-29566D01*
X75161Y-29185D02*
X75161Y-29414D01*
X75161Y-29299D02*
X74761Y-29299D01*
X74819Y-29338D01*
X74857Y-29376D01*
X74876Y-29414D01*
G54D11*
X48559Y-32642D02*
X48559Y-32357D01*
X48702Y-32700D02*
X48202Y-32500D01*
X48702Y-32300D01*
X52440Y-32457D02*
X52464Y-32371D01*
X52488Y-32342D01*
X52535Y-32314D01*
X52607Y-32314D01*
X52654Y-32342D01*
X52678Y-32371D01*
X52702Y-32428D01*
X52702Y-32657D01*
X52202Y-32657D01*
X52202Y-32457D01*
X52226Y-32400D01*
X52250Y-32371D01*
X52297Y-32342D01*
X52345Y-32342D01*
X52392Y-32371D01*
X52416Y-32400D01*
X52440Y-32457D01*
X52440Y-32657D01*
X48654Y-37814D02*
X48678Y-37842D01*
X48702Y-37928D01*
X48702Y-37985D01*
X48678Y-38071D01*
X48630Y-38128D01*
X48583Y-38157D01*
X48488Y-38185D01*
X48416Y-38185D01*
X48321Y-38157D01*
X48273Y-38128D01*
X48226Y-38071D01*
X48202Y-37985D01*
X48202Y-37928D01*
X48226Y-37842D01*
X48250Y-37814D01*
X52702Y-38157D02*
X52202Y-38157D01*
X52202Y-38014D01*
X52226Y-37928D01*
X52273Y-37871D01*
X52321Y-37842D01*
X52416Y-37814D01*
X52488Y-37814D01*
X52583Y-37842D01*
X52630Y-37871D01*
X52678Y-37928D01*
X52702Y-38014D01*
X52702Y-38157D01*
G54D15*
X47505Y-24546D02*
X47655Y-24546D01*
X47475Y-24659D02*
X47580Y-24265D01*
X47685Y-24659D01*
X47895Y-24453D02*
X47790Y-24453D01*
X47790Y-24659D02*
X47790Y-24265D01*
X47940Y-24265D01*
X48164Y-24453D02*
X48059Y-24453D01*
X48059Y-24659D02*
X48059Y-24265D01*
X48209Y-24265D01*
X48494Y-24659D02*
X48314Y-24659D01*
X48404Y-24659D02*
X48404Y-24265D01*
X48374Y-24321D01*
X48344Y-24359D01*
X48314Y-24378D01*
X48687Y-24265D02*
X48897Y-24265D01*
X48762Y-24659D01*
X49002Y-24640D02*
X49047Y-24659D01*
X49122Y-24659D01*
X49152Y-24640D01*
X49167Y-24621D01*
X49182Y-24584D01*
X49182Y-24546D01*
X49167Y-24509D01*
X49152Y-24490D01*
X49122Y-24471D01*
X49062Y-24453D01*
X49032Y-24434D01*
X49017Y-24415D01*
X49002Y-24378D01*
X49002Y-24340D01*
X49017Y-24303D01*
X49032Y-24284D01*
X49062Y-24265D01*
X49137Y-24265D01*
X49182Y-24284D01*
X49317Y-24453D02*
X49422Y-24453D01*
X49467Y-24659D02*
X49317Y-24659D01*
X49317Y-24265D01*
X49467Y-24265D01*
X49767Y-24284D02*
X49737Y-24265D01*
X49692Y-24265D01*
X49647Y-24284D01*
X49617Y-24321D01*
X49602Y-24359D01*
X49587Y-24434D01*
X49587Y-24490D01*
X49602Y-24565D01*
X49617Y-24603D01*
X49647Y-24640D01*
X49692Y-24659D01*
X49722Y-24659D01*
X49767Y-24640D01*
X49782Y-24621D01*
X49782Y-24490D01*
X49722Y-24490D01*
X49917Y-24659D02*
X49917Y-24265D01*
X50022Y-24546D01*
X50127Y-24265D01*
X50127Y-24659D01*
X50277Y-24453D02*
X50382Y-24453D01*
X50427Y-24659D02*
X50277Y-24659D01*
X50277Y-24265D01*
X50427Y-24265D01*
X50562Y-24659D02*
X50562Y-24265D01*
X50742Y-24659D01*
X50742Y-24265D01*
X50847Y-24265D02*
X51027Y-24265D01*
X50937Y-24659D02*
X50937Y-24265D01*
X51117Y-24640D02*
X51162Y-24659D01*
X51237Y-24659D01*
X51267Y-24640D01*
X51282Y-24621D01*
X51297Y-24584D01*
X51297Y-24546D01*
X51282Y-24509D01*
X51267Y-24490D01*
X51237Y-24471D01*
X51177Y-24453D01*
X51147Y-24434D01*
X51132Y-24415D01*
X51117Y-24378D01*
X51117Y-24340D01*
X51132Y-24303D01*
X51147Y-24284D01*
X51177Y-24265D01*
X51252Y-24265D01*
X51297Y-24284D01*
G54D16*
X68704Y-32961D02*
X68704Y-32561D01*
X68857Y-32561D01*
X68895Y-32580D01*
X68914Y-32600D01*
X68933Y-32638D01*
X68933Y-32695D01*
X68914Y-32733D01*
X68895Y-32752D01*
X68857Y-32771D01*
X68704Y-32771D01*
X69066Y-32561D02*
X69333Y-32561D01*
X69161Y-32961D01*
X48704Y-24961D02*
X48704Y-24561D01*
X48857Y-24561D01*
X48895Y-24580D01*
X48914Y-24600D01*
X48933Y-24638D01*
X48933Y-24695D01*
X48914Y-24733D01*
X48895Y-24752D01*
X48857Y-24771D01*
X48704Y-24771D01*
X49295Y-24561D02*
X49104Y-24561D01*
X49085Y-24752D01*
X49104Y-24733D01*
X49142Y-24714D01*
X49238Y-24714D01*
X49276Y-24733D01*
X49295Y-24752D01*
X49314Y-24790D01*
X49314Y-24885D01*
X49295Y-24923D01*
X49276Y-24942D01*
X49238Y-24961D01*
X49142Y-24961D01*
X49104Y-24942D01*
X49085Y-24923D01*
X74704Y-41461D02*
X74704Y-41061D01*
X74857Y-41061D01*
X74895Y-41080D01*
X74914Y-41100D01*
X74933Y-41138D01*
X74933Y-41195D01*
X74914Y-41233D01*
X74895Y-41252D01*
X74857Y-41271D01*
X74704Y-41271D01*
X75276Y-41061D02*
X75200Y-41061D01*
X75161Y-41080D01*
X75142Y-41100D01*
X75104Y-41157D01*
X75085Y-41233D01*
X75085Y-41385D01*
X75104Y-41423D01*
X75123Y-41442D01*
X75161Y-41461D01*
X75238Y-41461D01*
X75276Y-41442D01*
X75295Y-41423D01*
X75314Y-41385D01*
X75314Y-41290D01*
X75295Y-41252D01*
X75276Y-41233D01*
X75238Y-41214D01*
X75161Y-41214D01*
X75123Y-41233D01*
X75104Y-41252D01*
X75085Y-41290D01*
X44204Y-41461D02*
X44204Y-41061D01*
X44357Y-41061D01*
X44395Y-41080D01*
X44414Y-41100D01*
X44433Y-41138D01*
X44433Y-41195D01*
X44414Y-41233D01*
X44395Y-41252D01*
X44357Y-41271D01*
X44204Y-41271D01*
X44776Y-41195D02*
X44776Y-41461D01*
X44680Y-41042D02*
X44585Y-41328D01*
X44833Y-41328D01*
X74704Y-22461D02*
X74704Y-22061D01*
X74857Y-22061D01*
X74895Y-22080D01*
X74914Y-22100D01*
X74933Y-22138D01*
X74933Y-22195D01*
X74914Y-22233D01*
X74895Y-22252D01*
X74857Y-22271D01*
X74704Y-22271D01*
X75085Y-22100D02*
X75104Y-22080D01*
X75142Y-22061D01*
X75238Y-22061D01*
X75276Y-22080D01*
X75295Y-22100D01*
X75314Y-22138D01*
X75314Y-22176D01*
X75295Y-22233D01*
X75066Y-22461D01*
X75314Y-22461D01*
X51204Y-40961D02*
X51204Y-40561D01*
X51357Y-40561D01*
X51395Y-40580D01*
X51414Y-40600D01*
X51433Y-40638D01*
X51433Y-40695D01*
X51414Y-40733D01*
X51395Y-40752D01*
X51357Y-40771D01*
X51204Y-40771D01*
X51566Y-40561D02*
X51814Y-40561D01*
X51680Y-40714D01*
X51738Y-40714D01*
X51776Y-40733D01*
X51795Y-40752D01*
X51814Y-40790D01*
X51814Y-40885D01*
X51795Y-40923D01*
X51776Y-40942D01*
X51738Y-40961D01*
X51623Y-40961D01*
X51585Y-40942D01*
X51566Y-40923D01*
X44204Y-22461D02*
X44204Y-22061D01*
X44357Y-22061D01*
X44395Y-22080D01*
X44414Y-22100D01*
X44433Y-22138D01*
X44433Y-22195D01*
X44414Y-22233D01*
X44395Y-22252D01*
X44357Y-22271D01*
X44204Y-22271D01*
X44814Y-22461D02*
X44585Y-22461D01*
X44700Y-22461D02*
X44700Y-22061D01*
X44661Y-22119D01*
X44623Y-22157D01*
X44585Y-22176D01*
M02*
